<svg xmlns="http://www.w3.org/2000/svg" width="660" height="640" viewBox="0 0 660 640" version="1.1"><path d="" stroke="none" fill="#ae90db" fill-rule="evenodd"/><path d="M 310.352 1.607 C 309.170 2.433, 307.258 3.180, 306.102 3.267 C 304.946 3.354, 304 3.731, 304 4.104 C 304 4.815, 299.047 6.448, 297.750 6.164 C 297.337 6.074, 297 6.477, 297 7.059 C 297 7.641, 296.588 7.864, 296.085 7.553 C 295.582 7.242, 295.013 7.460, 294.821 8.038 C 294.628 8.616, 293.465 9.165, 292.235 9.257 C 291.006 9.350, 290 9.806, 290 10.272 C 290 10.737, 289.550 10.840, 289 10.500 C 288.450 10.160, 288 10.385, 288 11 C 288 11.615, 287.500 11.809, 286.888 11.431 C 286.277 11.053, 285.444 11.281, 285.038 11.938 C 284.632 12.595, 283.670 13.237, 282.900 13.365 C 282.130 13.492, 280.547 14.121, 279.381 14.763 C 278.216 15.405, 276.979 15.645, 276.631 15.298 C 276.284 14.951, 276 15.218, 276 15.892 C 276 16.566, 275.550 16.840, 275 16.500 C 274.450 16.160, 274 16.407, 274 17.048 C 274 17.689, 273.325 17.955, 272.500 17.638 C 271.675 17.322, 271 17.525, 271 18.090 C 271 18.656, 270.550 18.840, 270 18.500 C 269.450 18.160, 269 18.385, 269 19 C 269 19.615, 268.588 19.864, 268.085 19.553 C 267.582 19.242, 267.020 19.399, 266.835 19.902 C 266.651 20.405, 265.600 20.971, 264.500 21.158 C 263.400 21.346, 262.235 21.860, 261.910 22.300 C 261.586 22.740, 260.348 23.173, 259.160 23.263 C 257.972 23.352, 257 23.806, 257 24.272 C 257 24.737, 256.550 24.840, 256 24.500 C 255.450 24.160, 255 24.396, 255 25.024 C 255 25.653, 254.442 25.981, 253.759 25.753 C 253.076 25.525, 251.915 25.942, 251.178 26.679 C 250.442 27.416, 249.425 27.763, 248.919 27.450 C 248.414 27.138, 248 27.385, 248 28 C 248 28.615, 247.581 28.859, 247.069 28.543 C 246.557 28.226, 245.851 28.432, 245.500 29 C 245.149 29.568, 244.443 29.774, 243.931 29.457 C 243.419 29.141, 243 29.385, 243 30 C 243 30.615, 242.550 30.840, 242 30.500 C 241.450 30.160, 241 30.344, 241 30.910 C 241 31.475, 240.325 31.678, 239.500 31.362 C 238.675 31.045, 238 31.311, 238 31.952 C 238 32.593, 237.550 32.840, 237 32.500 C 236.450 32.160, 236 32.344, 236 32.910 C 236 33.475, 235.325 33.678, 234.500 33.362 C 233.675 33.045, 233 33.311, 233 33.952 C 233 34.593, 232.550 34.840, 232 34.500 C 231.450 34.160, 231 34.385, 231 35 C 231 35.615, 230.550 35.840, 230 35.500 C 229.450 35.160, 229 35.407, 229 36.048 C 229 36.689, 228.325 36.955, 227.500 36.638 C 226.675 36.322, 226 36.525, 226 37.090 C 226 37.656, 225.550 37.840, 225 37.500 C 224.450 37.160, 224 37.385, 224 38 C 224 38.615, 223.550 38.840, 223 38.500 C 222.450 38.160, 222 38.407, 222 39.048 C 222 39.689, 221.325 39.955, 220.500 39.638 C 219.675 39.322, 219 39.525, 219 40.090 C 219 40.656, 218.550 40.840, 218 40.500 C 217.450 40.160, 217 40.344, 217 40.910 C 217 41.475, 216.325 41.678, 215.500 41.362 C 214.675 41.045, 214 41.311, 214 41.952 C 214 42.593, 213.550 42.840, 213 42.500 C 212.450 42.160, 212 42.385, 212 43 C 212 43.615, 211.550 43.840, 211 43.500 C 210.450 43.160, 210 43.385, 210 44 C 210 44.615, 209.581 44.859, 209.069 44.543 C 208.557 44.226, 207.851 44.432, 207.500 45 C 207.149 45.568, 206.443 45.774, 205.931 45.457 C 205.419 45.141, 205 45.385, 205 46 C 205 46.615, 204.550 46.840, 204 46.500 C 203.450 46.160, 203 46.344, 203 46.910 C 203 47.475, 202.325 47.678, 201.500 47.362 C 200.675 47.045, 200 47.311, 200 47.952 C 200 48.593, 199.550 48.840, 199 48.500 C 198.450 48.160, 198 48.385, 198 49 C 198 49.615, 197.550 49.840, 197 49.500 C 196.450 49.160, 196 49.407, 196 50.048 C 196 50.689, 195.325 50.955, 194.500 50.638 C 193.675 50.322, 193 50.525, 193 51.090 C 193 51.656, 192.550 51.840, 192 51.500 C 191.450 51.160, 191 51.385, 191 52 C 191 52.615, 190.550 52.840, 190 52.500 C 189.450 52.160, 189 52.407, 189 53.048 C 189 53.689, 188.325 53.955, 187.500 53.638 C 186.675 53.322, 186 53.525, 186 54.090 C 186 54.656, 185.550 54.840, 185 54.500 C 184.450 54.160, 184 54.344, 184 54.910 C 184 55.475, 183.325 55.678, 182.500 55.362 C 181.675 55.045, 181 55.311, 181 55.952 C 181 56.593, 180.550 56.840, 180 56.500 C 179.450 56.160, 179 56.385, 179 57 C 179 57.615, 178.588 57.864, 178.085 57.553 C 177.582 57.242, 177.013 57.460, 176.821 58.038 C 176.628 58.616, 175.465 59.165, 174.235 59.257 C 173.006 59.350, 172 59.806, 172 60.272 C 172 60.737, 171.581 60.859, 171.069 60.543 C 170.557 60.226, 169.851 60.432, 169.500 61 C 169.149 61.568, 168.443 61.774, 167.931 61.457 C 167.419 61.141, 167 61.385, 167 62 C 167 62.615, 166.550 62.840, 166 62.500 C 165.450 62.160, 165 62.344, 165 62.910 C 165 63.475, 164.325 63.678, 163.500 63.362 C 162.675 63.045, 162 63.311, 162 63.952 C 162 64.593, 161.550 64.840, 161 64.500 C 160.450 64.160, 160 64.344, 160 64.910 C 160 65.475, 159.325 65.678, 158.500 65.362 C 157.675 65.045, 157 65.311, 157 65.952 C 157 66.593, 156.550 66.840, 156 66.500 C 155.450 66.160, 155 66.385, 155 67 C 155 67.615, 154.550 67.840, 154 67.500 C 153.450 67.160, 153 67.385, 153 68 C 153 68.615, 152.550 68.840, 152 68.500 C 151.450 68.160, 151 68.396, 151 69.024 C 151 69.653, 150.442 69.981, 149.759 69.753 C 149.076 69.525, 147.915 69.942, 147.178 70.679 C 146.442 71.416, 145.425 71.763, 144.919 71.450 C 144.414 71.138, 144 71.385, 144 72 C 144 72.615, 143.581 72.859, 143.069 72.543 C 142.557 72.226, 141.851 72.432, 141.500 73 C 141.149 73.568, 140.443 73.774, 139.931 73.457 C 139.419 73.141, 139 73.385, 139 74 C 139 74.615, 138.550 74.840, 138 74.500 C 137.450 74.160, 137 74.344, 137 74.910 C 137 75.475, 136.325 75.678, 135.500 75.362 C 134.675 75.045, 134 75.311, 134 75.952 C 134 76.593, 133.550 76.840, 133 76.500 C 132.450 76.160, 132 76.344, 132 76.910 C 132 77.475, 131.325 77.678, 130.500 77.362 C 129.675 77.045, 129 77.311, 129 77.952 C 129 78.593, 128.550 78.840, 128 78.500 C 127.450 78.160, 127 78.385, 127 79 C 127 79.615, 126.550 79.840, 126 79.500 C 125.450 79.160, 125 79.344, 125 79.910 C 125 80.475, 124.325 80.678, 123.500 80.362 C 122.675 80.045, 122 80.311, 122 80.952 C 122 81.593, 121.550 81.840, 121 81.500 C 120.450 81.160, 120 81.385, 120 82 C 120 82.615, 119.550 82.840, 119 82.500 C 118.450 82.160, 118 82.407, 118 83.048 C 118 83.689, 117.325 83.955, 116.500 83.638 C 115.675 83.322, 115 83.525, 115 84.090 C 115 84.656, 114.550 84.840, 114 84.500 C 113.450 84.160, 113 84.344, 113 84.910 C 113 85.475, 112.325 85.678, 111.500 85.362 C 110.675 85.045, 110 85.311, 110 85.952 C 110 86.593, 109.550 86.840, 109 86.500 C 108.450 86.160, 108 86.385, 108 87 C 108 87.615, 107.550 87.840, 107 87.500 C 106.450 87.160, 106 87.385, 106 88 C 106 88.615, 105.581 88.859, 105.069 88.543 C 104.557 88.226, 103.851 88.432, 103.500 89 C 103.149 89.568, 102.443 89.774, 101.931 89.457 C 101.419 89.141, 101 89.385, 101 90 C 101 90.615, 100.550 90.840, 100 90.500 C 99.450 90.160, 99 90.385, 99 91 C 99 91.615, 98.550 91.840, 98 91.500 C 97.450 91.160, 97 91.407, 97 92.048 C 97 92.689, 96.325 92.955, 95.500 92.638 C 94.675 92.322, 94 92.525, 94 93.090 C 94 93.656, 93.550 93.840, 93 93.500 C 92.450 93.160, 92 93.385, 92 94 C 92 94.615, 91.581 94.859, 91.069 94.543 C 90.557 94.226, 89.851 94.432, 89.500 95 C 89.149 95.568, 88.443 95.774, 87.931 95.457 C 87.419 95.141, 87 95.385, 87 96 C 87 96.615, 86.550 96.840, 86 96.500 C 85.450 96.160, 85 96.344, 85 96.910 C 85 97.475, 84.325 97.678, 83.500 97.362 C 82.675 97.045, 82 97.311, 82 97.952 C 82 98.593, 81.550 98.840, 81 98.500 C 80.450 98.160, 80 98.385, 80 99 C 80 99.615, 79.550 99.840, 79 99.500 C 78.450 99.160, 78 99.385, 78 100 C 78 100.615, 77.581 100.859, 77.069 100.543 C 76.557 100.226, 75.851 100.432, 75.500 101 C 75.149 101.568, 74.443 101.774, 73.931 101.457 C 73.419 101.141, 73 101.385, 73 102 C 73 102.615, 72.550 102.840, 72 102.500 C 71.450 102.160, 71 102.407, 71 103.048 C 71 103.689, 70.325 103.955, 69.500 103.638 C 68.675 103.322, 68 103.525, 68 104.090 C 68 104.656, 67.550 104.840, 67 104.500 C 66.450 104.160, 66 104.385, 66 105 C 66 105.615, 65.550 105.840, 65 105.500 C 64.450 105.160, 64 105.344, 64 105.910 C 64 106.475, 63.325 106.678, 62.500 106.362 C 61.675 106.045, 61 106.311, 61 106.952 C 61 107.593, 60.550 107.840, 60 107.500 C 59.450 107.160, 59 107.385, 59 108 C 59 108.615, 58.550 108.840, 58 108.500 C 57.450 108.160, 57 108.344, 57 108.910 C 57 109.475, 56.325 109.678, 55.500 109.362 C 54.651 109.036, 54 109.338, 54 110.060 C 54 110.760, 53.727 111.060, 53.393 110.726 C 53.058 110.392, 51.626 111.193, 50.210 112.506 C 48.794 113.819, 47.198 114.623, 46.663 114.292 C 46.124 113.958, 46.011 114.208, 46.409 114.853 C 46.810 115.502, 46.440 116.278, 45.569 116.612 C 44.712 116.941, 44.260 117.612, 44.565 118.105 C 44.869 118.597, 44.593 119, 43.952 119 C 43.311 119, 43.045 119.675, 43.362 120.500 C 43.678 121.325, 43.501 122, 42.969 122 C 42.436 122, 42 122.675, 42 123.500 C 42 124.325, 42.477 125, 43.059 125 C 43.641 125, 43.844 125.443, 43.510 125.984 C 43.175 126.525, 44.454 128.520, 46.351 130.417 C 48.248 132.315, 49.507 134.159, 49.150 134.517 C 48.793 134.874, 48.950 135.040, 49.500 134.885 C 51.085 134.439, 55 136.034, 55 137.126 C 55 137.672, 55.414 137.862, 55.919 137.550 C 56.425 137.237, 57.547 137.689, 58.412 138.555 C 59.277 139.420, 60.438 139.847, 60.992 139.505 C 61.547 139.162, 62 139.385, 62 140 C 62 140.615, 62.450 140.840, 63 140.500 C 63.550 140.160, 64 140.385, 64 141 C 64 141.615, 64.450 141.840, 65 141.500 C 65.550 141.160, 66 141.385, 66 142 C 66 142.615, 66.450 142.840, 67 142.500 C 67.550 142.160, 68 142.407, 68 143.048 C 68 143.689, 68.662 143.960, 69.471 143.649 C 70.280 143.339, 71.577 143.719, 72.352 144.495 C 73.127 145.270, 74.040 145.626, 74.381 145.286 C 74.721 144.945, 75 145.218, 75 145.892 C 75 146.566, 75.450 146.840, 76 146.500 C 76.550 146.160, 77 146.407, 77 147.048 C 77 147.689, 77.662 147.960, 78.471 147.649 C 79.280 147.339, 80.518 147.661, 81.221 148.364 C 81.924 149.067, 82.838 149.723, 83.250 149.821 C 83.662 149.920, 84.225 150.056, 84.500 150.125 C 84.775 150.194, 85.338 150.328, 85.750 150.424 C 88.717 151.113, 91 152.288, 91 153.126 C 91 153.672, 91.450 153.840, 92 153.500 C 92.550 153.160, 93 153.407, 93 154.048 C 93 154.689, 93.675 154.955, 94.500 154.638 C 95.325 154.322, 96 154.525, 96 155.090 C 96 155.656, 96.450 155.840, 97 155.500 C 97.550 155.160, 98 155.385, 98 156 C 98 156.615, 98.450 156.840, 99 156.500 C 99.550 156.160, 100 156.385, 100 157 C 100 157.615, 100.450 157.840, 101 157.500 C 101.550 157.160, 102 157.407, 102 158.048 C 102 158.689, 102.675 158.955, 103.500 158.638 C 104.325 158.322, 105 158.525, 105 159.090 C 105 159.656, 105.414 159.862, 105.919 159.550 C 106.425 159.237, 107.496 159.639, 108.300 160.443 C 109.104 161.247, 110.040 161.626, 110.381 161.286 C 110.721 160.945, 111 161.218, 111 161.892 C 111 162.566, 111.450 162.840, 112 162.500 C 112.550 162.160, 113 162.407, 113 163.048 C 113 163.689, 113.662 163.960, 114.471 163.649 C 115.280 163.339, 116.630 163.773, 117.471 164.614 C 118.312 165.455, 119 165.831, 119 165.449 C 119 165.067, 119.604 165.256, 120.342 165.869 C 121.080 166.481, 121.980 166.687, 122.342 166.325 C 122.704 165.963, 123 166.218, 123 166.892 C 123 167.566, 123.450 167.840, 124 167.500 C 124.550 167.160, 125 167.378, 125 167.985 C 125 168.591, 125.563 168.980, 126.250 168.848 C 128.153 168.483, 132 170.007, 132 171.126 C 132 171.672, 132.450 171.840, 133 171.500 C 133.550 171.160, 134 171.407, 134 172.048 C 134 172.689, 134.675 172.955, 135.500 172.638 C 136.325 172.322, 137 172.525, 137 173.090 C 137 173.656, 137.414 173.862, 137.919 173.550 C 138.425 173.237, 139.448 173.548, 140.193 174.241 C 140.938 174.933, 142.208 175.649, 143.014 175.830 C 143.821 176.012, 144.773 176.632, 145.129 177.208 C 145.485 177.785, 146.240 177.969, 146.808 177.619 C 147.375 177.268, 148.442 177.584, 149.178 178.321 C 149.915 179.058, 151.076 179.475, 151.759 179.247 C 152.442 179.019, 153 179.321, 153 179.917 C 153 180.513, 153.338 180.911, 153.750 180.802 C 155.190 180.421, 159 182.143, 159 183.174 C 159 183.746, 159.675 183.955, 160.500 183.638 C 161.325 183.322, 162 183.499, 162 184.031 C 162 184.564, 162.338 184.911, 162.750 184.802 C 164.157 184.430, 168 186.132, 168 187.126 C 168 187.672, 168.419 187.859, 168.931 187.542 C 170.066 186.841, 177 190.022, 177 191.244 C 177 191.725, 177.450 191.840, 178 191.500 C 178.550 191.160, 179 191.385, 179 192 C 179 192.615, 179.412 192.864, 179.915 192.553 C 180.418 192.242, 181.007 192.521, 181.225 193.174 C 182.965 198.395, 185 192.420, 185 182.090 C 185 175.051, 185.403 170.869, 186.123 170.424 C 186.841 169.980, 187.039 167.974, 186.670 164.865 C 186.301 161.743, 186.474 160, 187.154 160 C 187.737 160, 187.955 159.325, 187.638 158.500 C 187.322 157.675, 187.485 157, 188 157 C 188.515 157, 188.680 156.329, 188.365 155.508 C 188.039 154.658, 188.479 153.753, 189.391 153.404 C 190.269 153.066, 190.764 152.427, 190.490 151.983 C 189.515 150.406, 207.736 138.370, 212.242 137.615 C 212.934 137.499, 214.453 136.879, 215.619 136.237 C 216.784 135.595, 218 135.333, 218.321 135.654 C 218.642 135.975, 219.637 135.505, 220.533 134.610 C 221.429 133.714, 222.537 133.214, 222.995 133.497 C 223.454 133.781, 223.987 133.540, 224.179 132.962 C 224.372 132.384, 225.648 131.835, 227.015 131.742 C 228.382 131.648, 230.110 130.978, 230.855 130.252 C 231.601 129.526, 233.063 129.203, 234.105 129.533 C 235.147 129.864, 236 129.669, 236 129.099 C 236 128.529, 236.675 128.322, 237.500 128.638 C 238.325 128.955, 239 128.689, 239 128.048 C 239 127.407, 239.500 127.191, 240.112 127.569 C 240.723 127.947, 241.584 127.674, 242.024 126.961 C 242.464 126.249, 244.214 125.667, 245.912 125.667 C 247.610 125.667, 249 125.261, 249 124.766 C 249 124.271, 249.900 124.151, 251 124.500 C 252.198 124.880, 253 124.680, 253 124 C 253 123.320, 253.802 123.120, 255 123.500 C 256.198 123.880, 257 123.680, 257 123 C 257 122.320, 257.802 122.120, 259 122.500 C 260.198 122.880, 261 122.680, 261 122 C 261 121.320, 261.802 121.120, 263 121.500 C 264.162 121.869, 265 121.680, 265 121.048 C 265 120.389, 265.982 120.208, 267.500 120.589 C 269.141 121.001, 270 120.799, 270 120 C 270 119.201, 270.859 118.999, 272.500 119.411 C 274.059 119.802, 275 119.614, 275 118.911 C 275 118.207, 275.941 118.019, 277.500 118.411 C 279.075 118.806, 280 118.615, 280 117.894 C 280 117.156, 281.065 116.963, 283 117.350 C 284.882 117.726, 286 117.539, 286 116.847 C 286 116.121, 287.365 115.963, 290 116.384 C 292.701 116.816, 294 116.654, 294 115.884 C 294 115.115, 295.299 114.952, 298 115.384 C 300.453 115.776, 302 115.632, 302 115.012 C 302 114.455, 303.350 114, 305 114 C 306.650 114, 308 114.450, 308 115 C 308 116.455, 312.757 116.228, 313.253 114.750 C 313.911 112.793, 339.797 113.057, 341.027 115.034 C 341.776 116.238, 342.299 116.277, 343.956 115.250 C 346.383 113.746, 351 113.594, 351 115.019 C 351 115.607, 352.058 115.772, 353.500 115.411 C 355.146 114.997, 356 115.201, 356 116.007 C 356 116.907, 357.455 117.049, 361.500 116.543 C 365.295 116.069, 367 116.202, 367 116.973 C 367 117.709, 368.197 117.866, 370.500 117.434 C 372.745 117.013, 374 117.165, 374 117.857 C 374 118.451, 374.675 118.678, 375.500 118.362 C 376.325 118.045, 377.787 118.126, 378.750 118.542 C 379.712 118.957, 381.512 119.198, 382.750 119.077 C 383.988 118.956, 385 119.297, 385 119.835 C 385 120.373, 385.900 120.577, 387 120.290 C 388.168 119.984, 389 120.259, 389 120.951 C 389 121.662, 389.764 121.892, 390.916 121.527 C 391.970 121.192, 393.109 121.367, 393.448 121.916 C 393.787 122.464, 394.725 122.659, 395.532 122.349 C 396.339 122.040, 397 122.332, 397 123 C 397 123.718, 397.675 123.955, 398.652 123.580 C 400.441 122.893, 410.715 125.544, 412.750 127.217 C 413.438 127.782, 414 127.910, 414 127.500 C 414 127.090, 414.604 127.256, 415.342 127.869 C 416.080 128.481, 416.942 128.725, 417.256 128.410 C 417.571 128.096, 418.880 128.421, 420.164 129.134 C 422.637 130.505, 423.154 130.676, 425.429 130.875 C 426.214 130.944, 427.586 131.729, 428.476 132.619 C 429.367 133.510, 430.375 133.958, 430.718 133.616 C 431.060 133.273, 432.389 133.680, 433.670 134.520 C 434.952 135.359, 436 135.802, 436 135.503 C 436 135.204, 437.688 135.820, 439.750 136.872 C 441.813 137.925, 443.725 138.766, 444 138.743 C 445.183 138.643, 456.869 145.634, 460.874 148.838 C 468.523 154.957, 470.049 159.797, 469.908 177.500 L 469.788 192.500 472.394 192.816 C 473.901 192.999, 475 192.638, 475 191.959 C 475 191.314, 475.675 191.045, 476.500 191.362 C 477.325 191.678, 478 191.556, 478 191.090 C 478 190.088, 484.094 187.394, 485.408 187.815 C 485.908 187.975, 486.587 187.668, 486.918 187.133 C 487.248 186.598, 488.179 186.012, 488.986 185.830 C 489.792 185.649, 491.039 184.957, 491.755 184.292 C 492.472 183.628, 493.720 183.339, 494.529 183.649 C 495.338 183.960, 496 183.689, 496 183.048 C 496 182.407, 496.450 182.160, 497 182.500 C 497.550 182.840, 498 182.615, 498 182 C 498 181.385, 498.450 181.160, 499 181.500 C 499.550 181.840, 500 181.615, 500 181 C 500 180.385, 500.450 180.160, 501 180.500 C 501.550 180.840, 502 180.615, 502 180 C 502 179.385, 502.453 179.162, 503.008 179.505 C 503.562 179.847, 504.723 179.420, 505.588 178.555 C 506.453 177.689, 507.575 177.237, 508.081 177.550 C 508.586 177.862, 509 177.566, 509 176.892 C 509 176.218, 509.296 175.963, 509.658 176.325 C 510.020 176.687, 510.920 176.481, 511.658 175.869 C 512.396 175.256, 513 175.067, 513 175.449 C 513 175.831, 513.711 175.432, 514.581 174.562 C 515.450 173.693, 516.578 173.239, 517.088 173.555 C 517.598 173.870, 518.723 173.420, 519.588 172.555 C 520.453 171.689, 521.575 171.237, 522.081 171.550 C 522.586 171.862, 523 171.656, 523 171.090 C 523 170.525, 523.675 170.322, 524.500 170.638 C 525.325 170.955, 526 170.689, 526 170.048 C 526 169.407, 526.450 169.160, 527 169.500 C 527.550 169.840, 528 169.615, 528 169 C 528 168.385, 528.450 168.160, 529 168.500 C 529.550 168.840, 530 168.615, 530 168 C 530 167.385, 530.453 167.162, 531.008 167.505 C 531.562 167.847, 532.723 167.420, 533.588 166.555 C 534.453 165.689, 535.575 165.237, 536.081 165.550 C 536.586 165.862, 537 165.656, 537 165.090 C 537 164.525, 537.675 164.322, 538.500 164.638 C 539.325 164.955, 540 164.689, 540 164.048 C 540 163.407, 540.450 163.160, 541 163.500 C 541.550 163.840, 542 163.615, 542 163 C 542 162.385, 542.450 162.160, 543 162.500 C 543.550 162.840, 544 162.615, 544 162 C 544 161.385, 544.450 161.160, 545 161.500 C 545.550 161.840, 546 161.656, 546 161.090 C 546 160.525, 546.675 160.322, 547.500 160.638 C 548.325 160.955, 549 160.689, 549 160.048 C 549 159.407, 549.450 159.160, 550 159.500 C 550.550 159.840, 551 159.615, 551 159 C 551 158.385, 551.450 158.160, 552 158.500 C 552.550 158.840, 553 158.656, 553 158.090 C 553 157.525, 553.675 157.322, 554.500 157.638 C 555.325 157.955, 556 157.689, 556 157.048 C 556 156.407, 556.450 156.160, 557 156.500 C 557.550 156.840, 558 156.615, 558 156 C 558 155.385, 558.500 155.191, 559.112 155.569 C 559.723 155.947, 560.616 155.636, 561.096 154.878 C 562.025 153.412, 562.358 160.577, 562.448 184 L 562.500 197.500 558.360 201.750 C 556.083 204.088, 554.451 206, 554.733 206 C 555.014 206, 554.763 206.581, 554.173 207.291 C 553.476 208.131, 553.276 212.934, 553.599 221.041 C 554.215 236.500, 554.162 236.018, 555.167 235.397 C 555.625 235.114, 556 235.344, 556 235.910 C 556 236.475, 556.675 236.678, 557.500 236.362 C 558.325 236.045, 559 236.314, 559 236.960 C 559 237.680, 559.775 237.889, 561 237.500 C 562.100 237.151, 563 237.233, 563 237.683 C 563 238.132, 568.175 238.500, 574.500 238.500 C 580.825 238.500, 586 238.136, 586 237.691 C 586 237.246, 586.500 237.191, 587.112 237.569 C 587.723 237.947, 588.551 237.726, 588.952 237.078 C 589.352 236.430, 590.626 235.829, 591.783 235.741 C 592.939 235.654, 594.437 234.552, 595.112 233.292 C 595.786 232.031, 596.712 231, 597.169 231 C 597.626 231, 598 226.950, 598 222 C 598 216, 597.625 213, 596.875 213 C 596.158 213, 595.968 211.911, 596.350 210 C 596.736 208.068, 596.544 207, 595.808 207 C 595.180 207, 594.964 206.703, 595.327 206.340 C 595.690 205.977, 595.083 205.046, 593.977 204.271 C 592.871 203.497, 592.269 202.374, 592.638 201.777 C 593.007 201.179, 592.850 200.975, 592.288 201.322 C 591.083 202.067, 587.688 198.645, 588.664 197.669 C 589.032 197.301, 588.808 197, 588.167 197 C 587.308 197, 587 190.143, 587 171 C 587 155.629, 587.380 145, 587.930 145 C 588.442 145, 589.005 143.988, 589.180 142.750 C 589.356 141.512, 590.063 140.444, 590.750 140.375 C 591.438 140.306, 592.337 140.140, 592.750 140.007 C 593.163 139.873, 593.837 139.816, 594.250 139.882 C 594.663 139.947, 595 139.523, 595 138.941 C 595 138.359, 595.450 138.160, 596 138.500 C 596.550 138.840, 597 138.615, 597 138 C 597 137.385, 597.450 137.160, 598 137.500 C 598.550 137.840, 599 137.593, 599 136.952 C 599 136.311, 599.675 136.045, 600.500 136.362 C 601.325 136.678, 602 136.475, 602 135.910 C 602 135.344, 602.450 135.160, 603 135.500 C 603.550 135.840, 604 135.615, 604 135 C 604 134.385, 604.337 134.031, 604.750 134.214 C 605.163 134.396, 607.075 132.989, 609 131.088 C 610.925 129.187, 611.825 127.972, 611 128.390 C 610.124 128.833, 610.227 128.552, 611.250 127.714 C 613.145 126.161, 613.697 120, 611.941 120 C 611.359 120, 611.160 119.550, 611.500 119 C 611.840 118.450, 611.615 118, 611 118 C 610.385 118, 610.050 117.662, 610.255 117.250 C 610.743 116.272, 606.303 112.030, 605.565 112.768 C 605.254 113.079, 605 112.782, 605 112.108 C 605 111.434, 604.550 111.160, 604 111.500 C 603.450 111.840, 603 111.615, 603 111 C 603 110.385, 602.550 110.160, 602 110.500 C 601.450 110.840, 601 110.615, 601 110 C 601 109.385, 600.550 109.160, 600 109.500 C 599.450 109.840, 599 109.615, 599 109 C 599 108.385, 598.550 108.160, 598 108.500 C 597.450 108.840, 597 108.615, 597 108 C 597 107.385, 596.550 107.160, 596 107.500 C 595.450 107.840, 595 107.615, 595 107 C 595 106.385, 594.550 106.160, 594 106.500 C 593.450 106.840, 593 106.593, 593 105.952 C 593 105.311, 592.325 105.045, 591.500 105.362 C 590.675 105.678, 590 105.475, 590 104.910 C 590 104.344, 589.550 104.160, 589 104.500 C 588.450 104.840, 588 104.615, 588 104 C 588 103.385, 587.550 103.160, 587 103.500 C 586.450 103.840, 586 103.615, 586 103 C 586 102.385, 585.550 102.160, 585 102.500 C 584.450 102.840, 584 102.593, 584 101.952 C 584 101.311, 583.325 101.045, 582.500 101.362 C 581.675 101.678, 581 101.453, 581 100.862 C 581 100.270, 580.325 100.045, 579.500 100.362 C 578.675 100.678, 578 100.475, 578 99.910 C 578 99.344, 577.550 99.160, 577 99.500 C 576.450 99.840, 576 99.615, 576 99 C 576 98.385, 575.550 98.160, 575 98.500 C 574.450 98.840, 574 98.615, 574 98 C 574 97.385, 573.550 97.160, 573 97.500 C 572.450 97.840, 572 97.593, 572 96.952 C 572 96.311, 571.325 96.045, 570.500 96.362 C 569.675 96.678, 569 96.475, 569 95.910 C 569 95.344, 568.550 95.160, 568 95.500 C 567.450 95.840, 567 95.615, 567 95 C 567 94.385, 566.550 94.160, 566 94.500 C 565.450 94.840, 565 94.593, 565 93.952 C 565 93.311, 564.325 93.045, 563.500 93.362 C 562.675 93.678, 562 93.515, 562 93 C 562 92.485, 561.325 92.322, 560.500 92.638 C 559.675 92.955, 559 92.689, 559 92.048 C 559 91.407, 558.550 91.160, 558 91.500 C 557.450 91.840, 557 91.615, 557 91 C 557 90.385, 556.550 90.160, 556 90.500 C 555.450 90.840, 555 90.593, 555 89.952 C 555 89.311, 554.325 89.045, 553.500 89.362 C 552.675 89.678, 552 89.475, 552 88.910 C 552 88.344, 551.550 88.160, 551 88.500 C 550.450 88.840, 550 88.615, 550 88 C 550 87.385, 549.550 87.160, 549 87.500 C 548.450 87.840, 548 87.593, 548 86.952 C 548 86.311, 547.325 86.045, 546.500 86.362 C 545.675 86.678, 545 86.475, 545 85.910 C 545 85.344, 544.550 85.160, 544 85.500 C 543.450 85.840, 543 85.593, 543 84.952 C 543 84.311, 542.325 84.045, 541.500 84.362 C 540.675 84.678, 540 84.475, 540 83.910 C 540 83.344, 539.550 83.160, 539 83.500 C 538.450 83.840, 538 83.615, 538 83 C 538 82.385, 537.550 82.160, 537 82.500 C 536.450 82.840, 536 82.593, 536 81.952 C 536 81.311, 535.325 81.045, 534.500 81.362 C 533.675 81.678, 533 81.475, 533 80.910 C 533 80.344, 532.550 80.160, 532 80.500 C 531.450 80.840, 531 80.593, 531 79.952 C 531 79.311, 530.325 79.045, 529.500 79.362 C 528.675 79.678, 528 79.475, 528 78.910 C 528 78.344, 527.550 78.160, 527 78.500 C 526.450 78.840, 526 78.615, 526 78 C 526 77.385, 525.550 77.160, 525 77.500 C 524.450 77.840, 524 77.593, 524 76.952 C 524 76.311, 523.325 76.045, 522.500 76.362 C 521.675 76.678, 521 76.475, 521 75.910 C 521 75.344, 520.550 75.160, 520 75.500 C 519.450 75.840, 519 75.615, 519 75 C 519 74.385, 518.550 74.160, 518 74.500 C 517.450 74.840, 517 74.593, 517 73.952 C 517 73.311, 516.325 73.045, 515.500 73.362 C 514.675 73.678, 514 73.475, 514 72.910 C 514 72.344, 513.550 72.160, 513 72.500 C 512.450 72.840, 512 72.593, 512 71.952 C 512 71.311, 511.325 71.045, 510.500 71.362 C 509.675 71.678, 509 71.475, 509 70.910 C 509 70.344, 508.550 70.160, 508 70.500 C 507.450 70.840, 507 70.615, 507 70 C 507 69.385, 506.550 69.160, 506 69.500 C 505.450 69.840, 505 69.593, 505 68.952 C 505 68.311, 504.325 68.045, 503.500 68.362 C 502.675 68.678, 502 68.475, 502 67.910 C 502 67.344, 501.550 67.160, 501 67.500 C 500.450 67.840, 500 67.615, 500 67 C 500 66.385, 499.581 66.141, 499.069 66.457 C 498.557 66.774, 497.851 66.568, 497.500 66 C 497.149 65.432, 496.443 65.226, 495.931 65.543 C 495.419 65.859, 495 65.615, 495 65 C 495 64.385, 494.581 64.141, 494.069 64.457 C 493.557 64.774, 492.851 64.568, 492.500 64 C 492.149 63.432, 491.443 63.226, 490.931 63.543 C 490.419 63.859, 490 63.615, 490 63 C 490 62.385, 489.550 62.160, 489 62.500 C 488.450 62.840, 488 62.615, 488 62 C 488 61.385, 487.550 61.160, 487 61.500 C 486.450 61.840, 486 61.593, 486 60.952 C 486 60.311, 485.325 60.045, 484.500 60.362 C 483.675 60.678, 483 60.475, 483 59.910 C 483 59.344, 482.550 59.160, 482 59.500 C 481.450 59.840, 481 59.615, 481 59 C 481 58.385, 480.581 58.141, 480.069 58.457 C 479.557 58.774, 478.851 58.568, 478.500 58 C 478.149 57.432, 477.443 57.226, 476.931 57.543 C 476.419 57.859, 476 57.615, 476 57 C 476 56.385, 475.550 56.160, 475 56.500 C 474.450 56.840, 474 56.593, 474 55.952 C 474 55.311, 473.325 55.045, 472.500 55.362 C 471.675 55.678, 471 55.475, 471 54.910 C 471 54.344, 470.550 54.160, 470 54.500 C 469.450 54.840, 469 54.615, 469 54 C 469 53.385, 468.550 53.160, 468 53.500 C 467.450 53.840, 467 53.593, 467 52.952 C 467 52.311, 466.325 52.045, 465.500 52.362 C 464.675 52.678, 464 52.475, 464 51.910 C 464 51.344, 463.550 51.160, 463 51.500 C 462.450 51.840, 462 51.615, 462 51 C 462 50.385, 461.581 50.141, 461.069 50.457 C 460.557 50.774, 459.851 50.568, 459.500 50 C 459.149 49.432, 458.443 49.226, 457.931 49.543 C 457.419 49.859, 457 49.656, 457 49.090 C 457 48.525, 456.325 48.322, 455.500 48.638 C 454.675 48.955, 454 48.689, 454 48.048 C 454 47.407, 453.550 47.160, 453 47.500 C 452.450 47.840, 452 47.737, 452 47.272 C 452 46.806, 450.994 46.350, 449.765 46.257 C 448.535 46.165, 447.372 45.616, 447.179 45.038 C 446.987 44.460, 446.418 44.242, 445.915 44.553 C 445.412 44.864, 445 44.615, 445 44 C 445 43.385, 444.550 43.160, 444 43.500 C 443.450 43.840, 443 43.615, 443 43 C 443 42.385, 442.550 42.160, 442 42.500 C 441.450 42.840, 441 42.593, 441 41.952 C 441 41.311, 440.325 41.045, 439.500 41.362 C 438.675 41.678, 438 41.475, 438 40.910 C 438 40.344, 437.550 40.160, 437 40.500 C 436.450 40.840, 436 40.593, 436 39.952 C 436 39.311, 435.325 39.045, 434.500 39.362 C 433.675 39.678, 433 39.475, 433 38.910 C 433 38.344, 432.550 38.160, 432 38.500 C 431.450 38.840, 431 38.656, 431 38.090 C 431 37.525, 430.325 37.322, 429.500 37.638 C 428.675 37.955, 428 37.689, 428 37.048 C 428 36.407, 427.550 36.160, 427 36.500 C 426.450 36.840, 426 36.615, 426 36 C 426 35.385, 425.550 35.160, 425 35.500 C 424.450 35.840, 424 35.593, 424 34.952 C 424 34.311, 423.325 34.045, 422.500 34.362 C 421.675 34.678, 421 34.475, 421 33.910 C 421 33.344, 420.550 33.160, 420 33.500 C 419.450 33.840, 419 33.615, 419 33 C 419 32.385, 418.581 32.141, 418.069 32.457 C 417.557 32.774, 416.851 32.568, 416.500 32 C 416.149 31.432, 415.443 31.226, 414.931 31.543 C 414.419 31.859, 414 31.615, 414 31 C 414 30.385, 413.550 30.160, 413 30.500 C 412.450 30.840, 412 30.593, 412 29.952 C 412 29.311, 411.325 29.045, 410.500 29.362 C 409.675 29.678, 409 29.475, 409 28.910 C 409 28.344, 408.550 28.160, 408 28.500 C 407.450 28.840, 407 28.593, 407 27.952 C 407 27.311, 406.325 27.045, 405.500 27.362 C 404.675 27.678, 404 27.475, 404 26.910 C 404 26.344, 403.586 26.138, 403.081 26.450 C 402.575 26.763, 401.453 26.311, 400.588 25.445 C 399.723 24.580, 398.598 24.130, 398.088 24.445 C 397.578 24.761, 396.453 24.311, 395.588 23.445 C 394.723 22.580, 393.562 22.153, 393.008 22.495 C 392.453 22.838, 392 22.615, 392 22 C 392 21.385, 391.550 21.160, 391 21.500 C 390.450 21.840, 390 21.615, 390 21 C 390 20.385, 389.581 20.141, 389.069 20.457 C 388.557 20.774, 387.851 20.568, 387.500 20 C 387.149 19.432, 386.443 19.226, 385.931 19.543 C 385.419 19.859, 385 19.615, 385 19 C 385 18.385, 384.581 18.141, 384.069 18.457 C 383.557 18.774, 382.851 18.568, 382.500 18 C 382.149 17.432, 381.443 17.226, 380.931 17.543 C 380.419 17.859, 380 17.615, 380 17 C 380 16.385, 379.550 16.160, 379 16.500 C 378.450 16.840, 378 16.615, 378 16 C 378 15.385, 377.550 15.160, 377 15.500 C 376.450 15.840, 376 15.656, 376 15.090 C 376 14.525, 375.325 14.322, 374.500 14.638 C 373.675 14.955, 373 14.689, 373 14.048 C 373 13.407, 372.550 13.160, 372 13.500 C 371.450 13.840, 371 13.593, 371 12.952 C 371 12.311, 370.325 12.045, 369.500 12.362 C 368.675 12.678, 368 12.475, 368 11.910 C 368 11.344, 367.550 11.160, 367 11.500 C 366.450 11.840, 366 11.615, 366 11 C 366 10.385, 365.586 10.138, 365.081 10.450 C 364.575 10.763, 363.474 10.331, 362.634 9.491 C 361.794 8.651, 360.746 8.026, 360.304 8.101 C 359.862 8.176, 359.163 8.127, 358.750 7.993 C 358.337 7.860, 357.663 7.657, 357.250 7.543 C 352.126 6.133, 351 5.644, 351 4.833 C 351 4.310, 350.550 4.160, 350 4.500 C 349.450 4.840, 349 4.566, 349 3.892 C 349 3.218, 348.704 2.963, 348.342 3.325 C 347.980 3.687, 347.080 3.481, 346.342 2.869 C 345.604 2.256, 345 2.047, 345 2.403 C 345 2.760, 343.672 2.365, 342.050 1.526 C 337.876 -0.633, 313.466 -0.570, 310.352 1.607 M 303.001 128.103 C 303.001 128.435, 300.750 128.490, 298 128.226 C 294.433 127.883, 293 128.100, 293 128.984 C 293 129.858, 291.969 130.029, 289.500 129.566 C 287.112 129.118, 286 129.283, 286 130.086 C 286 130.871, 284.838 131.073, 282.500 130.694 C 280.370 130.348, 279 130.535, 279 131.171 C 279 131.787, 277.973 131.959, 276.500 131.589 C 274.941 131.198, 274 131.386, 274 132.089 C 274 132.793, 273.059 132.981, 271.500 132.589 C 270.036 132.222, 269 132.392, 269 133 C 269 133.608, 267.964 133.778, 266.500 133.411 C 264.859 132.999, 264 133.201, 264 134 C 264 134.799, 263.141 135.001, 261.500 134.589 C 260.097 134.237, 259 134.395, 259 134.950 C 259 135.493, 258.325 135.678, 257.500 135.362 C 256.675 135.045, 256 135.314, 256 135.960 C 256 136.680, 255.225 136.889, 254 136.500 C 252.802 136.120, 252 136.320, 252 137 C 252 137.680, 251.198 137.880, 250 137.500 C 248.775 137.111, 248 137.320, 248 138.040 C 248 138.686, 247.325 138.955, 246.500 138.638 C 245.675 138.322, 245 138.529, 245 139.099 C 245 139.680, 244.121 139.856, 243 139.500 C 241.879 139.144, 241 139.320, 241 139.901 C 241 140.471, 240.325 140.678, 239.500 140.362 C 238.675 140.045, 238 140.270, 238 140.862 C 238 141.453, 237.325 141.678, 236.500 141.362 C 235.675 141.045, 235 141.311, 235 141.952 C 235 142.593, 234.550 142.840, 234 142.500 C 233.450 142.160, 233 142.407, 233 143.048 C 233 143.689, 232.325 143.955, 231.500 143.638 C 230.675 143.322, 230 143.525, 230 144.090 C 230 144.656, 229.550 144.840, 229 144.500 C 228.450 144.160, 228 144.407, 228 145.048 C 228 145.689, 227.325 145.955, 226.500 145.638 C 225.675 145.322, 225 145.525, 225 146.090 C 225 146.656, 224.550 146.840, 224 146.500 C 223.450 146.160, 223 146.385, 223 147 C 223 147.615, 222.550 147.840, 222 147.500 C 221.450 147.160, 221 147.385, 221 148 C 221 148.615, 220.550 148.840, 220 148.500 C 219.450 148.160, 219 148.344, 219 148.910 C 219 149.475, 218.325 149.678, 217.500 149.362 C 216.675 149.045, 216 149.311, 216 149.952 C 216 150.593, 215.550 150.840, 215 150.500 C 214.450 150.160, 214 150.385, 214 151 C 214 151.615, 213.550 151.840, 213 151.500 C 212.450 151.160, 212 151.385, 212 152 C 212 152.615, 211.550 152.840, 211 152.500 C 210.450 152.160, 210 152.385, 210 153 C 210 153.615, 209.550 153.840, 209 153.500 C 208.450 153.160, 208 153.385, 208 154 C 208 154.615, 207.550 154.840, 207 154.500 C 206.450 154.160, 206 154.434, 206 155.108 C 206 155.782, 205.755 156.088, 205.455 155.788 C 203.378 153.712, 198.819 161.576, 199.430 166.182 C 199.880 169.578, 199.721 171, 198.889 171 C 198.024 171, 197.856 173.672, 198.260 181 C 198.620 187.539, 198.455 191, 197.783 191 C 197.124 191, 196.910 194.225, 197.186 200 C 197.422 204.950, 197.244 209, 196.789 209 C 196.334 209, 196.244 210.125, 196.589 211.500 C 197 213.138, 196.798 214, 196.003 214 C 195.198 214, 194.914 215.298, 195.158 217.860 C 195.653 223.055, 194.824 223.518, 185.250 223.391 C 180.713 223.330, 177 223.698, 177 224.208 C 177 224.718, 176.100 224.849, 175 224.500 C 173.760 224.106, 173 224.320, 173 225.063 C 173 225.874, 171.869 226.078, 169.500 225.694 C 167.364 225.347, 166 225.534, 166 226.174 C 166 226.831, 164.692 226.977, 162.500 226.566 C 160.358 226.164, 159 226.305, 159 226.930 C 159 227.530, 157.765 227.703, 156 227.350 C 154.009 226.952, 153 227.151, 153 227.942 C 153 228.680, 152.237 228.893, 151 228.500 C 149.802 228.120, 149 228.320, 149 229 C 149 229.680, 148.198 229.880, 147 229.500 C 145.802 229.120, 145 229.320, 145 230 C 145 230.680, 144.198 230.880, 143 230.500 C 141.900 230.151, 141 230.303, 141 230.839 C 141 231.375, 140.100 231.577, 139 231.290 C 137.900 231.002, 137 231.255, 137 231.852 C 137 232.449, 136.325 232.678, 135.500 232.362 C 134.675 232.045, 134 232.270, 134 232.862 C 134 233.453, 133.325 233.678, 132.500 233.362 C 131.675 233.045, 131 233.270, 131 233.862 C 131 234.453, 130.325 234.678, 129.500 234.362 C 128.675 234.045, 128 234.311, 128 234.952 C 128 235.593, 127.550 235.840, 127 235.500 C 126.450 235.160, 126 235.344, 126 235.910 C 126 236.475, 125.325 236.678, 124.500 236.362 C 123.675 236.045, 123 236.311, 123 236.952 C 123 237.593, 122.550 237.840, 122 237.500 C 121.450 237.160, 121 237.344, 121 237.910 C 121 238.475, 120.325 238.678, 119.500 238.362 C 118.675 238.045, 118 238.311, 118 238.952 C 118 239.593, 117.550 239.840, 117 239.500 C 116.450 239.160, 116 239.385, 116 240 C 116 240.615, 115.550 240.840, 115 240.500 C 114.450 240.160, 114 240.385, 114 241 C 114 241.615, 113.550 241.840, 113 241.500 C 112.450 241.160, 112 241.385, 112 242 C 112 242.615, 111.577 242.856, 111.060 242.537 C 110.542 242.217, 109.192 242.950, 108.060 244.166 C 106.927 245.382, 105.986 245.955, 105.970 245.439 C 105.953 244.922, 105.475 245.297, 104.908 246.271 C 104.341 247.245, 103.502 247.810, 103.043 247.527 C 102.585 247.243, 101.941 247.712, 101.612 248.569 C 101.283 249.426, 100.561 249.847, 100.007 249.504 C 99.453 249.162, 99 249.359, 99 249.941 C 99 250.523, 98.454 251, 97.788 251 C 97.121 251, 95.513 252.238, 94.215 253.750 C 92.917 255.262, 92.172 255.885, 92.559 255.133 C 92.946 254.381, 89.760 257.306, 85.479 261.633 C 81.198 265.960, 78.508 268.488, 79.502 267.250 C 82.172 263.927, 80.823 264.518, 77.437 268.155 C 75.822 269.890, 75.175 270.976, 76 270.570 C 76.825 270.163, 76.030 271.218, 74.234 272.915 C 72.438 274.612, 71.313 276.010, 71.734 276.022 C 72.155 276.034, 71.375 276.974, 70 278.109 C 68.625 279.245, 68.175 279.875, 69 279.511 C 69.825 279.146, 69.438 279.782, 68.139 280.924 C 66.841 282.066, 66.166 283.010, 66.639 283.022 C 67.113 283.034, 66.461 283.844, 65.191 284.821 C 63.921 285.798, 62.785 287.262, 62.665 288.074 C 62.546 288.887, 61.448 290.552, 60.224 291.776 C 59.001 292.999, 58 294.675, 58 295.500 C 58 296.325, 57.580 297, 57.067 297 C 56.118 297, 54.441 300.885, 54.802 302.250 C 54.911 302.663, 54.605 303, 54.121 303 C 53.167 303, 50.375 309.027, 50.762 310.250 C 50.893 310.663, 50.605 311, 50.121 311 C 49.141 311, 46.667 316.449, 46.667 318.609 C 46.667 319.374, 46.244 320, 45.726 320 C 45.209 320, 45.045 320.675, 45.362 321.500 C 45.678 322.325, 45.475 323, 44.910 323 C 44.344 323, 44.160 323.450, 44.500 324 C 44.840 324.550, 44.593 325, 43.952 325 C 43.311 325, 43.045 325.675, 43.362 326.500 C 43.678 327.325, 43.475 328, 42.910 328 C 42.344 328, 42.160 328.450, 42.500 329 C 42.840 329.550, 42.593 330, 41.952 330 C 41.311 330, 41.045 330.675, 41.362 331.500 C 41.678 332.325, 41.475 333, 40.910 333 C 40.344 333, 40.136 333.412, 40.447 333.915 C 40.758 334.418, 40.518 334.994, 39.914 335.195 C 39.310 335.397, 38.745 336.785, 38.658 338.280 C 38.571 339.775, 38.114 340.999, 37.643 340.999 C 37.172 341, 37.045 341.675, 37.362 342.500 C 37.678 343.325, 37.453 344, 36.862 344 C 36.270 344, 36.034 344.646, 36.337 345.435 C 36.640 346.225, 36.421 347.026, 35.852 347.216 C 35.282 347.406, 34.745 348.785, 34.658 350.280 C 34.571 351.775, 34.114 352.999, 33.643 352.999 C 33.172 353, 33.045 353.675, 33.362 354.500 C 33.678 355.325, 33.471 356, 32.901 356 C 32.320 356, 32.144 356.879, 32.500 358 C 32.889 359.225, 32.680 360, 31.960 360 C 31.314 360, 31.045 360.675, 31.362 361.500 C 31.678 362.325, 31.453 363, 30.862 363 C 30.270 363, 30.045 363.675, 30.362 364.500 C 30.678 365.325, 30.453 366, 29.862 366 C 29.270 366, 29.045 366.675, 29.362 367.500 C 29.678 368.325, 29.449 369, 28.852 369 C 28.255 369, 28.002 369.900, 28.290 371 C 28.577 372.100, 28.352 373, 27.790 373 C 27.227 373, 27.002 373.900, 27.290 375 C 27.577 376.100, 27.375 377, 26.839 377 C 26.303 377, 26.151 377.900, 26.500 379 C 26.889 380.225, 26.680 381, 25.960 381 C 25.314 381, 25.045 381.675, 25.362 382.500 C 25.678 383.325, 25.453 384, 24.860 384 C 24.221 384, 24.030 384.982, 24.390 386.417 C 24.760 387.890, 24.529 388.990, 23.798 389.234 C 23.139 389.454, 22.600 391.291, 22.600 393.317 C 22.600 395.342, 22.192 397, 21.693 397 C 21.194 397, 21.045 397.675, 21.362 398.500 C 21.678 399.325, 21.453 400, 20.860 400 C 20.211 400, 20.032 400.992, 20.411 402.500 C 20.804 404.067, 20.614 405, 19.902 405 C 19.259 405, 18.993 405.867, 19.290 407 C 19.577 408.100, 19.356 409, 18.798 409 C 18.215 409, 18.050 410.064, 18.411 411.500 C 18.792 413.018, 18.611 414, 17.952 414 C 17.320 414, 17.131 414.838, 17.500 416 C 17.889 417.226, 17.680 418, 16.959 418 C 16.204 418, 16.008 418.895, 16.411 420.500 C 16.804 422.067, 16.614 423, 15.902 423 C 15.259 423, 14.993 423.867, 15.290 425 C 15.577 426.100, 15.352 427, 14.790 427 C 14.227 427, 14.002 427.900, 14.290 429 C 14.577 430.100, 14.352 431, 13.790 431 C 13.227 431, 12.982 432.125, 13.245 433.500 C 13.508 434.875, 13.299 436, 12.782 436 C 12.257 436, 12.132 437.326, 12.500 439 C 12.946 441.028, 12.772 442, 11.963 442 C 11.226 442, 10.950 442.960, 11.245 444.500 C 11.508 445.875, 11.286 447, 10.753 447 C 10.218 447, 10.064 448.121, 10.411 449.500 C 10.806 451.075, 10.615 452, 9.894 452 C 9.156 452, 8.963 453.065, 9.350 455 C 9.713 456.816, 9.534 458, 8.896 458 C 8.244 458, 8.093 459.147, 8.500 461 C 8.920 462.913, 8.761 464, 8.060 464 C 7.388 464, 7.205 464.970, 7.589 466.500 C 8.001 468.141, 7.799 469, 7 469 C 6.201 469, 5.999 469.859, 6.411 471.500 C 6.803 473.062, 6.614 474, 5.908 474 C 5.158 474, 4.998 475.177, 5.434 477.500 C 5.877 479.861, 5.714 481, 4.934 481 C 4.154 481, 3.991 482.139, 4.434 484.500 C 4.876 486.857, 4.714 488, 3.937 488 C 3.206 488, 3.013 488.915, 3.411 490.500 C 3.807 492.081, 3.615 493, 2.888 493 C 2.133 493, 1.933 494.200, 2.306 496.500 C 2.643 498.577, 2.461 500, 1.858 500 C 1.248 500, 1.105 501.202, 1.500 503 C 1.898 504.813, 1.753 506, 1.132 506 C 0.447 506, 0.097 519.636, 0.080 547 C 0.064 574.510, 0.395 588, 1.087 588 C 1.654 588, 1.840 588.450, 1.500 589 C 1.160 589.550, 1.344 590, 1.910 590 C 2.475 590, 2.700 590.617, 2.411 591.371 C 2.122 592.125, 2.564 593.422, 3.395 594.252 C 4.225 595.082, 4.626 596.040, 4.286 596.381 C 3.945 596.721, 4.218 597, 4.892 597 C 5.566 597, 5.840 597.450, 5.500 598 C 5.160 598.550, 5.385 599, 6 599 C 6.615 599, 6.840 599.450, 6.500 600 C 6.160 600.550, 6.359 601, 6.941 601 C 7.523 601, 7.947 601.337, 7.882 601.750 C 7.551 603.847, 8.124 605.042, 9.155 604.405 C 9.839 603.982, 10.039 604.128, 9.645 604.765 C 9.280 605.356, 9.661 606.518, 10.491 607.348 C 11.321 608.178, 12 609.210, 12 609.641 C 12 610.072, 13.237 611.487, 14.750 612.785 C 16.262 614.083, 16.825 614.812, 16 614.405 C 15.175 613.998, 16.332 615.428, 18.572 617.583 C 20.811 619.737, 21.711 620.825, 20.572 620 C 18.516 618.512, 18.515 618.517, 20.384 620.726 C 21.420 621.951, 22.621 622.734, 23.053 622.467 C 23.485 622.200, 25.282 623.673, 27.045 625.741 C 28.808 627.808, 29.930 628.825, 29.539 628 C 29.147 627.175, 29.805 627.625, 31 629 C 32.195 630.375, 32.870 630.825, 32.500 630 C 32.130 629.175, 32.805 629.625, 34 631 C 35.195 632.375, 35.876 632.825, 35.513 632 C 35.076 631.008, 35.334 631.088, 36.275 632.234 C 37.057 633.188, 37.991 633.676, 38.349 633.318 C 38.707 632.960, 39 633.218, 39 633.892 C 39 634.566, 39.450 634.840, 40 634.500 C 40.550 634.160, 41 634.385, 41 635 C 41 635.615, 41.450 635.840, 42 635.500 C 42.550 635.160, 43 635.385, 43 636 C 43 636.615, 43.450 636.840, 44 636.500 C 44.550 636.160, 45 636.385, 45 637 C 45 637.615, 45.450 637.840, 46 637.500 C 46.550 637.160, 47 637.331, 47 637.879 C 47 639.711, 95.536 640.630, 97.694 638.839 C 98.412 638.243, 99 638.046, 99 638.401 C 99 638.756, 100.048 638.359, 101.330 637.520 C 102.611 636.680, 103.961 636.295, 104.330 636.663 C 104.698 637.032, 105 636.782, 105 636.108 C 105 635.434, 105.450 635.160, 106 635.500 C 106.550 635.840, 107 635.615, 107 635 C 107 634.385, 107.450 634.160, 108 634.500 C 108.550 634.840, 109 634.615, 109 634 C 109 633.385, 109.403 633.131, 109.895 633.435 C 110.388 633.740, 111.073 633.252, 111.419 632.351 C 111.764 631.451, 112.329 630.996, 112.675 631.341 C 113.020 631.686, 113.943 631.188, 114.725 630.234 C 115.666 629.088, 115.924 629.008, 115.487 630 C 115.124 630.825, 115.805 630.375, 117 629 C 118.195 627.625, 118.860 627.175, 118.477 628 C 118.094 628.825, 118.842 628.303, 120.140 626.839 C 123.365 623.203, 130.864 617.055, 129 619.575 C 128.175 620.691, 128.938 620.005, 130.696 618.052 C 132.454 616.098, 135.604 612.972, 137.696 611.104 C 139.788 609.237, 140.600 608.273, 139.500 608.963 C 138.400 609.652, 139.750 608.062, 142.500 605.428 C 145.250 602.794, 146.600 601.220, 145.500 601.931 C 144.400 602.642, 145.300 601.530, 147.500 599.461 C 149.700 597.391, 150.825 596.030, 150 596.436 C 149.175 596.842, 149.625 596.195, 151 595 C 152.375 593.805, 152.825 593.123, 152 593.486 C 151.175 593.848, 151.850 592.938, 153.500 591.463 C 155.150 589.987, 155.825 589.087, 155 589.463 C 154.175 589.838, 154.850 588.938, 156.500 587.463 C 158.150 585.987, 158.825 585.087, 158 585.463 C 157.175 585.838, 157.850 584.938, 159.500 583.463 C 161.150 581.987, 161.825 581.088, 161 581.464 C 160.175 581.841, 160.374 581.440, 161.441 580.574 C 162.509 579.708, 162.959 578.985, 162.441 578.967 C 161.924 578.948, 162.562 578.048, 163.861 576.967 C 165.159 575.885, 165.834 574.990, 165.361 574.978 C 164.887 574.966, 165.625 574.026, 167 572.891 C 168.375 571.755, 168.825 571.130, 168 571.500 C 167.175 571.870, 167.625 571.195, 169 570 C 170.375 568.805, 170.825 568.130, 170 568.500 C 169.175 568.870, 169.419 568.347, 170.543 567.337 C 173.797 564.411, 175.883 561.421, 174 562.380 C 173.175 562.801, 173.850 561.938, 175.500 560.463 C 177.150 558.987, 177.825 558.089, 177 558.466 C 176.175 558.844, 176.562 558.218, 177.861 557.076 C 179.159 555.934, 179.834 554.986, 179.361 554.968 C 178.887 554.951, 179.374 554.276, 180.441 553.468 C 181.509 552.661, 181.959 551.990, 181.441 551.978 C 180.924 551.966, 181.625 551.026, 183 549.891 C 184.375 548.755, 184.825 548.123, 184 548.486 C 183.175 548.848, 183.850 547.938, 185.500 546.463 C 187.150 544.987, 187.825 544.087, 187 544.463 C 186.175 544.838, 186.850 543.938, 188.500 542.463 C 190.150 540.987, 190.825 540.086, 190 540.459 C 189.175 540.832, 190.075 539.697, 192 537.937 C 193.925 536.176, 194.825 535.053, 194 535.440 C 193.175 535.828, 193.850 534.938, 195.500 533.463 C 197.150 531.987, 197.825 531.096, 197 531.481 C 196.175 531.867, 198.113 529.778, 201.307 526.841 C 204.501 523.903, 209.388 519.025, 212.168 516 C 214.947 512.975, 216.834 511.196, 216.361 512.047 C 215.887 512.898, 216.562 512.448, 217.860 511.047 C 219.158 509.646, 219.890 509.109, 219.487 509.854 C 218.976 510.798, 219.522 510.704, 221.293 509.544 C 222.689 508.629, 224.092 507.203, 224.409 506.377 C 224.726 505.550, 225.439 505.153, 225.993 505.496 C 226.547 505.838, 227 505.615, 227 505 C 227 504.385, 227.450 504.160, 228 504.500 C 228.550 504.840, 229 504.615, 229 504 C 229 503.385, 229.414 503.138, 229.919 503.450 C 230.425 503.763, 231.438 503.452, 232.169 502.759 C 232.901 502.067, 234.400 501.346, 235.500 501.158 C 236.600 500.971, 237.642 500.433, 237.815 499.965 C 237.988 499.496, 238.775 499.360, 239.565 499.663 C 240.354 499.966, 241 499.689, 241 499.048 C 241 498.407, 241.450 498.160, 242 498.500 C 242.550 498.840, 243 498.754, 243 498.309 C 243 497.864, 248.400 497.660, 255 497.855 C 263.310 498.101, 267 497.871, 267 497.105 C 267 496.432, 269.151 496, 272.500 496 C 275.551 496, 278 496.452, 278 497.014 C 278 497.692, 299.880 497.941, 344 497.764 C 380.300 497.619, 410 497.886, 410 498.357 C 410 498.828, 410.675 498.955, 411.500 498.638 C 412.325 498.322, 413 498.547, 413 499.138 C 413 499.730, 413.675 499.955, 414.500 499.638 C 415.325 499.322, 416 499.547, 416 500.138 C 416 500.730, 416.675 500.955, 417.500 500.638 C 418.325 500.322, 419 500.525, 419 501.090 C 419 501.656, 419.450 501.840, 420 501.500 C 420.550 501.160, 421 501.385, 421 502 C 421 502.615, 421.450 502.840, 422 502.500 C 422.550 502.160, 423 502.328, 423 502.874 C 423 503.868, 426.843 505.570, 428.250 505.198 C 428.663 505.089, 429 505.477, 429 506.059 C 429 506.641, 429.450 506.840, 430 506.500 C 430.550 506.160, 431 506.359, 431 506.941 C 431 507.523, 431.675 508, 432.500 508 C 433.325 508, 434 508.477, 434 509.059 C 434 509.641, 434.411 509.864, 434.913 509.554 C 435.415 509.244, 436.798 510.230, 437.987 511.745 C 439.176 513.260, 439.837 513.825, 439.456 513 C 439.075 512.175, 441.179 514.127, 444.131 517.338 C 447.084 520.549, 452.200 525.664, 455.500 528.705 C 458.800 531.746, 460.600 533.666, 459.500 532.971 C 458.400 532.277, 459.300 533.382, 461.500 535.427 C 463.700 537.472, 464.825 538.838, 464 538.463 C 463.175 538.087, 463.850 538.987, 465.500 540.463 C 467.150 541.938, 467.825 542.848, 467 542.486 C 466.175 542.123, 466.625 542.755, 468 543.891 C 469.375 545.026, 470.113 545.966, 469.639 545.978 C 469.166 545.990, 469.841 546.885, 471.139 547.967 C 472.438 549.048, 473.113 549.948, 472.639 549.967 C 472.166 549.985, 472.841 550.934, 474.139 552.076 C 475.438 553.218, 475.825 553.854, 475 553.489 C 474.175 553.125, 474.625 553.805, 476 555 C 477.375 556.195, 477.825 556.870, 477 556.500 C 476.175 556.130, 476.625 556.755, 478 557.891 C 479.375 559.026, 480.113 559.966, 479.639 559.978 C 479.166 559.990, 479.841 560.934, 481.139 562.076 C 482.438 563.218, 482.825 563.854, 482 563.489 C 481.175 563.125, 481.625 563.755, 483 564.891 C 484.375 566.026, 485.113 566.966, 484.639 566.978 C 484.166 566.990, 484.841 567.934, 486.139 569.076 C 487.438 570.218, 487.825 570.854, 487 570.489 C 486.175 570.125, 486.625 570.755, 488 571.891 C 489.375 573.026, 490.113 573.966, 489.639 573.978 C 489.166 573.990, 489.841 574.934, 491.139 576.076 C 492.438 577.218, 492.825 577.844, 492 577.466 C 491.175 577.089, 491.850 577.987, 493.500 579.463 C 495.150 580.938, 495.825 581.848, 495 581.486 C 494.175 581.123, 494.625 581.805, 496 583 C 497.375 584.195, 497.825 584.850, 497 584.455 C 496.175 584.060, 497.075 585.176, 499 586.937 C 500.925 588.697, 501.825 589.832, 501 589.459 C 500.175 589.086, 500.850 589.987, 502.500 591.463 C 504.150 592.938, 504.825 593.812, 504 593.405 C 503.175 592.998, 504.525 594.592, 507 596.947 C 509.475 599.302, 510.805 600.839, 509.955 600.364 C 509.105 599.889, 509.893 600.781, 511.704 602.346 C 513.516 603.912, 514.796 605.521, 514.548 605.922 C 514.301 606.323, 517.338 609.767, 521.299 613.575 L 528.500 620.500 522 613.436 C 518.425 609.550, 520 610.889, 525.500 616.412 C 531 621.934, 534.825 625.533, 534 624.410 C 533.175 623.287, 534.030 623.973, 535.901 625.934 C 537.772 627.895, 538.976 628.825, 538.577 628 C 538.124 627.063, 538.386 627.151, 539.275 628.234 C 540.057 629.188, 540.980 629.686, 541.325 629.341 C 541.671 628.996, 542.236 629.451, 542.581 630.351 C 542.927 631.252, 543.612 631.740, 544.105 631.435 C 544.597 631.131, 545 631.385, 545 632 C 545 632.615, 545.450 632.840, 546 632.500 C 546.550 632.160, 547 632.385, 547 633 C 547 633.615, 547.450 633.840, 548 633.500 C 548.550 633.160, 549 633.385, 549 634 C 549 634.615, 549.450 634.840, 550 634.500 C 550.550 634.160, 551 634.385, 551 635 C 551 635.615, 551.450 635.840, 552 635.500 C 552.550 635.160, 553 635.385, 553 636 C 553 636.615, 553.450 636.840, 554 636.500 C 554.550 636.160, 555 636.385, 555 637 C 555 637.615, 555.450 637.840, 556 637.500 C 556.550 637.160, 557 637.407, 557 638.048 C 557 638.689, 557.675 638.955, 558.500 638.638 C 559.325 638.322, 560 638.481, 560 638.992 C 560 640.269, 605.745 640.222, 606.534 638.944 C 606.866 638.407, 607.526 638.207, 608 638.500 C 608.474 638.793, 609.149 638.568, 609.500 638 C 609.851 637.432, 610.557 637.226, 611.069 637.543 C 611.581 637.859, 612 637.656, 612 637.090 C 612 636.525, 612.617 636.300, 613.371 636.589 C 614.125 636.878, 615.022 636.386, 615.364 635.494 C 615.706 634.603, 616.439 634.153, 616.993 634.496 C 617.547 634.838, 618 634.615, 618 634 C 618 633.385, 618.403 633.131, 618.895 633.435 C 619.388 633.740, 620.059 633.288, 620.388 632.431 C 620.717 631.574, 621.392 631.124, 621.888 631.431 C 622.384 631.738, 623.073 631.252, 623.419 630.351 C 623.764 629.451, 624.317 628.984, 624.648 629.314 C 624.978 629.645, 626.127 628.922, 627.200 627.707 C 628.274 626.493, 628.847 626.175, 628.475 627 C 628.102 627.825, 628.984 627.058, 630.436 625.295 C 631.887 623.532, 635.420 619.965, 638.287 617.369 C 641.154 614.772, 642.804 613.065, 641.953 613.574 C 641.102 614.083, 641.552 613.438, 642.953 612.140 C 644.354 610.842, 644.825 610.094, 644 610.477 C 643.175 610.860, 643.625 610.195, 645 609 C 646.375 607.805, 646.825 607.130, 646 607.500 C 645.175 607.870, 645.625 607.195, 647 606 C 648.375 604.805, 648.825 604.124, 648 604.487 C 647.008 604.924, 647.088 604.666, 648.234 603.725 C 649.188 602.943, 649.676 602.009, 649.318 601.651 C 648.960 601.293, 649.218 601, 649.892 601 C 650.566 601, 650.840 600.550, 650.500 600 C 650.160 599.450, 650.385 599, 651 599 C 651.615 599, 651.840 598.550, 651.500 598 C 651.160 597.450, 651.389 597, 652.008 597 C 652.680 597, 652.878 596.192, 652.500 595 C 652.111 593.775, 652.320 593, 653.040 593 C 653.686 593, 653.955 592.325, 653.638 591.500 C 653.322 590.675, 653.525 590, 654.090 590 C 654.656 590, 654.840 589.550, 654.500 589 C 654.160 588.450, 654.407 588, 655.048 588 C 655.689 588, 655.955 587.325, 655.638 586.500 C 655.322 585.675, 655.529 585, 656.099 585 C 656.680 585, 656.856 584.121, 656.500 583 C 656.124 581.815, 656.320 581, 656.982 581 C 657.754 581, 657.894 579.183, 657.435 575.130 C 656.993 571.222, 657.144 569.029, 657.886 568.571 C 659.445 567.607, 659.423 539.379, 657.861 538.414 C 657.076 537.929, 656.900 534.967, 657.295 528.873 C 657.653 523.358, 657.487 519.801, 656.855 519.410 C 656.240 519.030, 656.106 516.861, 656.515 513.892 C 657.003 510.344, 656.853 509, 655.969 509 C 655.148 509, 654.946 508.021, 655.350 506 C 655.726 504.121, 655.539 503, 654.850 503 C 654.164 503, 653.973 501.885, 654.342 500.039 C 654.674 498.380, 654.469 496.790, 653.877 496.424 C 653.255 496.040, 653.082 494.378, 653.456 492.385 C 653.880 490.123, 653.707 489, 652.934 489 C 652.154 489, 651.991 487.861, 652.434 485.500 C 652.876 483.143, 652.714 482, 651.937 482 C 651.206 482, 651.013 481.085, 651.411 479.500 C 651.806 477.925, 651.615 477, 650.894 477 C 650.156 477, 649.963 475.935, 650.350 474 C 650.726 472.121, 650.539 471, 649.850 471 C 649.161 471, 648.974 469.879, 649.350 468 C 649.713 466.184, 649.534 465, 648.896 465 C 648.244 465, 648.093 463.853, 648.500 462 C 648.944 459.981, 648.771 459, 647.971 459 C 647.203 459, 647.005 458.116, 647.411 456.500 C 647.802 454.941, 647.614 454, 646.911 454 C 646.207 454, 646.019 453.059, 646.411 451.500 C 646.802 449.941, 646.614 449, 645.911 449 C 645.207 449, 645.019 448.059, 645.411 446.500 C 645.802 444.941, 645.614 444, 644.911 444 C 644.207 444, 644.019 443.059, 644.411 441.500 C 644.778 440.036, 644.608 439, 644 439 C 643.392 439, 643.222 437.964, 643.589 436.500 C 643.992 434.895, 643.796 434, 643.041 434 C 642.320 434, 642.111 433.226, 642.500 432 C 642.889 430.774, 642.680 430, 641.959 430 C 641.204 430, 641.008 429.105, 641.411 427.500 C 641.802 425.941, 641.614 425, 640.911 425 C 640.207 425, 640.019 424.059, 640.411 422.500 C 640.792 420.982, 640.611 420, 639.952 420 C 639.320 420, 639.131 419.162, 639.500 418 C 639.889 416.774, 639.680 416, 638.959 416 C 638.204 416, 638.008 415.105, 638.411 413.500 C 638.792 411.982, 638.611 411, 637.952 411 C 637.320 411, 637.131 410.162, 637.500 409 C 637.880 407.802, 637.680 407, 637 407 C 636.320 407, 636.120 406.198, 636.500 405 C 636.869 403.838, 636.680 403, 636.048 403 C 635.389 403, 635.208 402.018, 635.589 400.500 C 635.968 398.992, 635.789 398, 635.140 398 C 634.547 398, 634.322 397.325, 634.638 396.500 C 634.955 395.675, 634.686 395, 634.040 395 C 633.320 395, 633.111 394.225, 633.500 393 C 633.880 391.802, 633.680 391, 633 391 C 632.320 391, 632.120 390.198, 632.500 389 C 632.880 387.802, 632.680 387, 632 387 C 631.320 387, 631.120 386.198, 631.500 385 C 631.880 383.802, 631.680 383, 631 383 C 630.320 383, 630.120 382.198, 630.500 381 C 630.849 379.900, 630.697 379, 630.161 379 C 629.625 379, 629.423 378.100, 629.710 377 C 629.998 375.900, 629.745 375, 629.148 375 C 628.551 375, 628.322 374.325, 628.638 373.500 C 628.955 372.675, 628.686 372, 628.040 372 C 627.320 372, 627.111 371.225, 627.500 370 C 627.856 368.879, 627.680 368, 627.099 368 C 626.529 368, 626.322 367.325, 626.638 366.500 C 626.955 365.675, 626.758 365, 626.201 365 C 625.643 365, 625.423 364.100, 625.710 363 C 625.998 361.900, 625.745 361, 625.148 361 C 624.551 361, 624.322 360.325, 624.638 359.500 C 624.955 358.675, 624.730 358, 624.138 358 C 623.547 358, 623.322 357.325, 623.638 356.500 C 623.955 355.674, 623.668 355, 623 355 C 622.332 355, 622.045 354.326, 622.362 353.500 C 622.678 352.675, 622.471 352, 621.901 352 C 621.320 352, 621.144 351.121, 621.500 350 C 621.856 348.879, 621.680 348, 621.099 348 C 620.529 348, 620.322 347.325, 620.638 346.500 C 620.955 345.675, 620.730 345, 620.138 345 C 619.547 345, 619.322 344.325, 619.638 343.500 C 619.955 342.675, 619.730 342, 619.138 342 C 618.547 342, 618.322 341.325, 618.638 340.500 C 618.955 339.675, 618.730 339, 618.138 339 C 617.547 339, 617.322 338.325, 617.638 337.500 C 617.955 336.675, 617.689 336, 617.048 336 C 616.407 336, 616.160 335.550, 616.500 335 C 616.840 334.450, 616.656 334, 616.090 334 C 615.525 334, 615.322 333.325, 615.638 332.500 C 615.955 331.675, 615.689 331, 615.048 331 C 614.407 331, 614.160 330.550, 614.500 330 C 614.840 329.450, 614.656 329, 614.090 329 C 613.525 329, 613.322 328.325, 613.638 327.500 C 613.955 326.675, 613.689 326, 613.048 326 C 612.407 326, 612.160 325.550, 612.500 325 C 612.840 324.450, 612.656 324, 612.090 324 C 611.525 324, 611.322 323.325, 611.638 322.500 C 611.955 321.675, 611.689 321, 611.048 321 C 610.407 321, 610.160 320.550, 610.500 320 C 610.840 319.450, 610.656 319, 610.090 319 C 609.525 319, 609.322 318.325, 609.638 317.500 C 609.955 316.675, 609.689 316, 609.048 316 C 608.407 316, 608.160 315.550, 608.500 315 C 608.840 314.450, 608.615 314, 608 314 C 607.385 314, 607.160 313.550, 607.500 313 C 607.840 312.450, 607.615 312, 607 312 C 606.385 312, 606.160 311.550, 606.500 311 C 606.840 310.450, 606.615 310, 606 310 C 605.385 310, 605.160 309.550, 605.500 309 C 605.840 308.450, 605.615 308, 605 308 C 604.385 308, 604.160 307.550, 604.500 307 C 604.840 306.450, 604.615 306, 604 306 C 603.385 306, 603.160 305.550, 603.500 305 C 603.840 304.450, 603.615 304, 603 304 C 602.385 304, 602.160 303.550, 602.500 303 C 602.840 302.450, 602.615 302, 602 302 C 601.385 302, 601.160 301.550, 601.500 301 C 601.840 300.450, 601.615 300, 601 300 C 600.385 300, 600.160 299.550, 600.500 299 C 600.840 298.450, 600.615 298, 600 298 C 599.385 298, 599.160 297.550, 599.500 297 C 599.840 296.450, 599.566 296, 598.892 296 C 598.218 296, 597.960 295.707, 598.318 295.349 C 598.676 294.991, 598.188 294.057, 597.234 293.275 C 596.077 292.325, 595.999 292.067, 597 292.500 C 597.825 292.857, 597.626 292.440, 596.559 291.574 C 595.491 290.708, 595.015 290, 595.500 290 C 595.985 290, 595.509 289.339, 594.441 288.532 C 593.374 287.724, 592.924 287.049, 593.441 287.032 C 593.959 287.014, 593.509 286.292, 592.441 285.426 C 591.374 284.560, 591.175 284.149, 592 284.513 C 592.825 284.876, 592.375 284.245, 591 283.109 C 589.625 281.974, 588.863 281.034, 589.306 281.022 C 589.749 281.010, 588.849 279.839, 587.306 278.419 C 585.763 277, 585.175 276.168, 586 276.570 C 586.825 276.973, 585.700 275.609, 583.500 273.539 C 581.300 271.470, 580.400 270.356, 581.500 271.064 C 582.600 271.773, 581.156 270.229, 578.291 267.635 C 575.427 265.040, 570.960 260.573, 568.365 257.709 C 565.771 254.844, 564.065 253.196, 564.574 254.047 C 565.083 254.898, 564.438 254.448, 563.140 253.047 C 561.842 251.646, 561.087 251.175, 561.463 252 C 561.838 252.825, 560.938 252.150, 559.463 250.500 C 557.987 248.850, 557.089 248.175, 557.466 249 C 557.844 249.825, 557.274 249.507, 556.200 248.293 C 555.127 247.078, 553.978 246.355, 553.648 246.686 C 553.317 247.016, 552.764 246.549, 552.419 245.649 C 552.073 244.748, 551.388 244.260, 550.895 244.565 C 550.403 244.869, 550 244.615, 550 244 C 550 243.385, 549.547 243.162, 548.993 243.504 C 548.439 243.847, 547.717 243.426, 547.388 242.569 C 547.059 241.712, 546.388 241.260, 545.895 241.565 C 545.403 241.869, 545 241.615, 545 241 C 545 240.385, 544.550 240.160, 544 240.500 C 543.450 240.840, 543 240.615, 543 240 C 543 239.385, 542.550 239.160, 542 239.500 C 541.450 239.840, 541 239.615, 541 239 C 541 238.385, 540.550 238.160, 540 238.500 C 539.450 238.840, 539 238.615, 539 238 C 539 237.385, 538.550 237.160, 538 237.500 C 537.450 237.840, 537 237.615, 537 237 C 537 236.385, 536.550 236.160, 536 236.500 C 535.450 236.840, 535 236.593, 535 235.952 C 535 235.311, 534.325 235.045, 533.500 235.362 C 532.675 235.678, 532 235.475, 532 234.910 C 532 234.344, 531.550 234.160, 531 234.500 C 530.450 234.840, 530 234.593, 530 233.952 C 530 233.311, 529.325 233.045, 528.500 233.362 C 527.675 233.678, 527 233.453, 527 232.862 C 527 232.270, 526.325 232.045, 525.500 232.362 C 524.675 232.678, 524 232.453, 524 231.862 C 524 231.270, 523.325 231.045, 522.500 231.362 C 521.675 231.678, 521 231.453, 521 230.862 C 521 230.270, 520.325 230.045, 519.500 230.362 C 518.675 230.678, 518 230.453, 518 229.862 C 518 229.270, 517.325 229.045, 516.500 229.362 C 515.675 229.678, 515 229.471, 515 228.901 C 515 228.320, 514.121 228.144, 513 228.500 C 511.838 228.869, 511 228.680, 511 228.048 C 511 227.389, 510.018 227.208, 508.500 227.589 C 506.895 227.992, 506 227.796, 506 227.041 C 506 226.320, 505.226 226.111, 504 226.500 C 502.763 226.893, 502 226.680, 502 225.942 C 502 225.151, 500.991 224.952, 499 225.350 C 497.184 225.713, 496 225.534, 496 224.896 C 496 224.244, 494.853 224.093, 493 224.500 C 490.958 224.948, 490 224.773, 490 223.951 C 490 223.079, 488.607 222.927, 485 223.406 C 481.468 223.874, 480 223.725, 480 222.897 C 480 222.035, 477.488 221.910, 470.490 222.424 C 461.477 223.086, 453.624 220.959, 458.759 219.247 C 460.243 218.752, 460.503 208, 459.031 208 C 458.499 208, 458.322 207.325, 458.638 206.500 C 458.962 205.658, 458.664 205, 457.959 205 C 457.002 205, 456.842 202.862, 457.287 196 C 457.608 191.050, 457.562 187, 457.185 187.001 C 456.808 187.001, 456.656 182.726, 456.847 177.501 C 457.100 170.560, 456.868 168, 455.987 168 C 455.220 168, 454.912 166.819, 455.141 164.750 C 455.488 161.609, 452.018 156.315, 450.565 157.768 C 450.254 158.079, 450 157.782, 450 157.108 C 450 156.434, 449.550 156.160, 449 156.500 C 448.450 156.840, 448 156.566, 448 155.892 C 448 155.218, 447.707 154.960, 447.349 155.318 C 446.991 155.676, 446.057 155.188, 445.275 154.234 C 444.383 153.147, 444.121 153.060, 444.573 154 C 444.970 154.825, 444.282 154.457, 443.045 153.182 C 441.808 151.907, 440.204 151.091, 439.481 151.369 C 438.757 151.647, 437.899 151.180, 437.574 150.333 C 437.242 149.468, 436.330 149.043, 435.492 149.365 C 434.671 149.680, 434 149.475, 434 148.910 C 434 148.344, 433.550 148.160, 433 148.500 C 432.450 148.840, 432 148.615, 432 148 C 432 147.385, 431.550 147.160, 431 147.500 C 430.450 147.840, 430 147.615, 430 147 C 430 146.385, 429.550 146.160, 429 146.500 C 428.450 146.840, 428 146.593, 428 145.952 C 428 145.311, 427.325 145.045, 426.500 145.362 C 425.675 145.678, 425 145.475, 425 144.910 C 425 144.344, 424.550 144.160, 424 144.500 C 423.450 144.840, 423 144.593, 423 143.952 C 423 143.311, 422.325 143.045, 421.500 143.362 C 420.675 143.678, 420 143.453, 420 142.862 C 420 142.270, 419.325 142.045, 418.500 142.362 C 417.675 142.678, 417 142.453, 417 141.862 C 417 141.270, 416.325 141.045, 415.500 141.362 C 414.675 141.678, 414 141.515, 414 141 C 414 140.485, 413.325 140.322, 412.500 140.638 C 411.674 140.955, 411 140.668, 411 140 C 411 139.332, 410.326 139.045, 409.500 139.362 C 408.675 139.678, 408 139.453, 408 138.862 C 408 138.270, 407.325 138.045, 406.500 138.362 C 405.675 138.678, 405 138.471, 405 137.901 C 405 137.320, 404.121 137.144, 403 137.500 C 401.802 137.880, 401 137.680, 401 137 C 401 136.320, 400.198 136.120, 399 136.500 C 397.802 136.880, 397 136.680, 397 136 C 397 135.320, 396.198 135.120, 395 135.500 C 393.900 135.849, 393 135.697, 393 135.161 C 393 134.625, 392.100 134.423, 391 134.710 C 389.867 135.007, 389 134.741, 389 134.098 C 389 133.386, 388.067 133.196, 386.500 133.589 C 384.941 133.981, 384 133.793, 384 133.089 C 384 132.386, 383.059 132.198, 381.500 132.589 C 379.915 132.987, 379 132.794, 379 132.063 C 379 131.286, 377.857 131.124, 375.500 131.566 C 373.521 131.937, 372 131.815, 372 131.284 C 372 130.769, 370.650 130.545, 369 130.787 C 367.183 131.053, 366 130.783, 366 130.102 C 366 129.349, 364.676 129.188, 362 129.616 C 359.217 130.061, 358 129.894, 358 129.067 C 358 128.224, 356.689 128.074, 353.500 128.552 C 351.025 128.923, 349 128.838, 349.001 128.364 C 349.001 127.889, 338.651 127.500, 326.002 127.500 C 313.352 127.500, 303.002 127.771, 303.001 128.103 M 484.841 295.968 C 484.654 296.526, 483.262 297.085, 481.750 297.209 C 480.238 297.334, 479 297.815, 479 298.277 C 479 298.740, 478.550 298.840, 478 298.500 C 477.450 298.160, 477 298.359, 477 298.941 C 477 299.523, 476.598 300, 476.106 300 C 475.614 300, 473.701 301.431, 471.856 303.180 C 470.010 304.929, 469.175 306.021, 470 305.606 C 471.166 305.020, 471.147 305.146, 469.912 306.176 C 469.039 306.904, 468.514 308.063, 468.746 308.750 C 468.977 309.438, 468.671 310, 468.064 310 C 467.388 310, 467.204 310.966, 467.589 312.500 C 467.976 314.040, 467.791 315, 467.108 315 C 466.499 315, 466 315.900, 466 317 C 466 318.100, 466.502 319, 467.117 319 C 467.741 319, 468.003 319.882, 467.710 321 C 467.423 322.100, 467.643 323, 468.201 323 C 468.758 323, 468.955 323.675, 468.638 324.500 C 468.322 325.325, 468.574 326, 469.198 326 C 469.822 326, 470.093 326.240, 469.800 326.533 C 469.155 327.178, 475.825 334, 477.100 334 C 477.595 334, 478 334.477, 478 335.059 C 478 335.641, 478.450 335.840, 479 335.500 C 479.550 335.160, 480 335.385, 480 336 C 480 336.615, 480.450 336.840, 481 336.500 C 481.550 336.160, 482 336.344, 482 336.910 C 482 337.475, 482.675 337.678, 483.500 337.362 C 484.325 337.045, 485 337.284, 485 337.893 C 485 338.502, 486.125 339, 487.500 339 C 488.875 339, 490 338.502, 490 337.893 C 490 337.284, 490.675 337.045, 491.500 337.362 C 492.325 337.678, 493 337.475, 493 336.910 C 493 336.344, 493.450 336.160, 494 336.500 C 494.550 336.840, 495 336.615, 495 336 C 495 335.385, 495.412 335.136, 495.915 335.447 C 496.418 335.758, 496.988 335.535, 497.183 334.952 C 497.377 334.368, 498.404 333.764, 499.464 333.608 C 500.525 333.452, 501.867 332.464, 502.446 331.413 C 503.026 330.361, 504.072 329.135, 504.771 328.689 C 505.470 328.242, 505.781 327.455, 505.462 326.939 C 505.143 326.422, 505.344 326, 505.910 326 C 506.475 326, 506.678 325.325, 506.362 324.500 C 506.045 323.675, 506.311 323, 506.952 323 C 507.593 323, 507.840 322.550, 507.500 322 C 507.160 321.450, 507.256 321, 507.714 321 C 508.171 321, 508.545 319.200, 508.545 317 C 508.545 314.800, 508.160 313, 507.689 313 C 507.219 313, 507.019 312.442, 507.247 311.759 C 507.475 311.076, 507.058 309.915, 506.321 309.178 C 505.584 308.442, 505.237 307.425, 505.550 306.919 C 505.862 306.414, 505.615 306, 505 306 C 504.385 306, 504.118 305.619, 504.405 305.153 C 504.693 304.687, 503.595 303.028, 501.964 301.466 C 500.334 299.904, 498.993 299.048, 498.985 299.563 C 498.976 300.078, 498.569 299.868, 498.080 299.095 C 497.591 298.322, 495.951 297.558, 494.436 297.396 C 492.921 297.235, 491.416 296.742, 491.091 296.301 C 490.191 295.080, 485.229 294.816, 484.841 295.968 M 163 304.059 C 163 304.641, 162.550 304.840, 162 304.500 C 161.450 304.160, 161 304.359, 161 304.941 C 161 305.523, 160.298 306, 159.441 306 C 158.584 306, 158.160 306.450, 158.500 307 C 158.840 307.550, 158.754 307.999, 158.309 307.999 C 157.864 307.998, 157.642 315.873, 157.814 325.499 C 158.041 338.115, 157.811 343, 156.989 343 C 156.318 343, 155.979 344.241, 156.166 346.020 C 156.411 348.360, 155.809 349.615, 153.491 351.592 C 151.846 352.996, 151.175 353.815, 152 353.412 C 152.825 353.009, 153.185 353.029, 152.801 353.456 C 152.416 353.883, 143.078 354.156, 132.051 354.063 C 116.846 353.934, 112 354.188, 112 355.113 C 112 355.784, 111.737 356.071, 111.417 355.750 C 110.499 354.833, 107.294 358.357, 107.779 359.750 C 108.018 360.438, 107.716 361, 107.107 361 C 106.357 361, 106 365.028, 106 373.500 C 106 381.631, 106.370 386, 107.059 386 C 107.641 386, 107.843 386.444, 107.508 386.987 C 105.647 389.998, 109.329 390.594, 127.172 390.173 C 140.985 389.847, 145 390.033, 145 391.001 C 145 391.836, 145.929 392.064, 147.800 391.690 C 149.884 391.273, 150.909 391.624, 151.807 393.063 C 152.471 394.126, 153.573 394.884, 154.257 394.748 C 154.941 394.611, 155.388 395.063, 155.250 395.750 C 155.113 396.438, 155.372 397, 155.827 397 C 156.282 397, 156.455 398.350, 156.213 400 C 155.933 401.911, 156.209 403, 156.973 403 C 157.870 403, 158.088 407.148, 157.836 419.490 C 157.572 432.426, 157.783 436.088, 158.813 436.483 C 159.536 436.760, 159.804 437.509, 159.409 438.147 C 158.963 438.870, 159.128 439.039, 159.845 438.595 C 160.480 438.203, 161 438.385, 161 439 C 161 439.615, 161.450 439.840, 162 439.500 C 162.550 439.160, 163 439.389, 163 440.008 C 163 440.680, 163.808 440.878, 165 440.500 C 166.147 440.136, 167 440.320, 167 440.933 C 167 441.610, 170.288 442, 176 442 C 181.960 442, 185 441.623, 185 440.883 C 185 440.259, 185.882 439.997, 187 440.290 C 188.100 440.577, 189 440.378, 189 439.847 C 189 439.316, 189.450 439.160, 190 439.500 C 190.550 439.840, 191 439.641, 191 439.059 C 191 438.477, 191.563 438.113, 192.250 438.250 C 192.938 438.388, 193.388 437.938, 193.250 437.250 C 193.113 436.563, 193.343 436, 193.762 436 C 194.182 436, 194.356 427.900, 194.151 418 C 193.892 405.546, 194.110 400, 194.857 400 C 195.451 400, 195.696 399.371, 195.400 398.601 C 195.105 397.832, 195.414 396.862, 196.086 396.447 C 196.925 395.929, 197.069 396.132, 196.545 397.095 C 196.124 397.868, 196.939 397.150, 198.354 395.500 C 199.770 393.850, 200.944 392.132, 200.964 391.683 C 200.984 391.233, 201.900 391.151, 203 391.500 C 204.235 391.892, 205 391.680, 205 390.945 C 205 390.054, 209.629 389.860, 223.472 390.172 C 238.394 390.508, 242.044 390.327, 242.465 389.230 C 242.752 388.484, 243.509 388.196, 244.147 388.591 C 244.870 389.037, 245.039 388.872, 244.595 388.155 C 244.203 387.520, 244.385 387, 245 387 C 245.615 387, 245.840 386.550, 245.500 386 C 245.160 385.450, 245.246 385, 245.691 385.001 C 246.136 385.001, 246.344 382.751, 246.153 380.001 C 245.934 376.829, 246.208 375, 246.903 375 C 248.230 375, 248.412 365.319, 247.095 364.833 C 246.597 364.650, 246.034 363.154, 245.845 361.510 C 245.489 358.426, 243.075 355.011, 241.750 355.718 C 241.338 355.938, 241 355.614, 241 354.998 C 241 354.200, 235.481 353.968, 221.782 354.189 L 202.564 354.500 199.532 351.454 L 196.500 348.407 199 351.454 L 201.500 354.500 198.325 351.635 C 196.557 350.039, 195.386 348.157, 195.682 347.385 C 195.975 346.623, 195.681 346, 195.029 346 C 194.146 346, 193.928 341.104, 194.172 326.750 C 194.494 307.854, 193.510 301.823, 190.583 304.750 C 190.262 305.071, 190 304.808, 190 304.167 C 190 303.335, 186.119 303, 176.500 303 C 167.665 303, 163 303.366, 163 304.059 M 429 350.107 C 429 350.716, 428.325 350.955, 427.500 350.638 C 426.675 350.322, 426 350.547, 426 351.138 C 426 351.730, 425.325 351.955, 424.500 351.638 C 423.675 351.322, 423 351.499, 423 352.031 C 423 352.564, 422.325 353, 421.500 353 C 420.675 353, 420 353.477, 420 354.059 C 420 354.641, 419.610 354.877, 419.134 354.583 C 418.657 354.288, 417.420 355.014, 416.384 356.195 C 415.114 357.644, 414.989 358.097, 416 357.585 C 416.825 357.168, 416.375 357.805, 415 359 C 413.625 360.195, 413.175 360.876, 414 360.513 C 415.198 359.985, 415.181 360.118, 413.912 361.176 C 413.039 361.904, 412.514 363.063, 412.746 363.750 C 412.977 364.438, 412.792 365, 412.333 365 C 411.875 365, 411.500 367.473, 411.500 370.497 C 411.500 373.520, 411.886 375.995, 412.357 375.997 C 412.828 375.999, 412.955 376.675, 412.638 377.500 C 412.322 378.325, 412.499 379, 413.031 379 C 413.564 379, 413.887 379.418, 413.750 379.929 C 413.613 380.441, 414.400 381.599, 415.500 382.504 C 416.600 383.408, 416.825 383.817, 416 383.413 C 415.175 383.008, 415.591 383.875, 416.924 385.339 C 419.544 388.214, 420.491 388.736, 419.485 386.750 C 419.137 386.063, 419.585 386.400, 420.482 387.500 C 421.378 388.600, 422.761 389.368, 423.556 389.206 C 424.350 389.045, 425 389.409, 425 390.015 C 425 390.622, 425.450 390.840, 426 390.500 C 426.550 390.160, 427 390.389, 427 391.008 C 427 391.702, 427.817 391.876, 429.125 391.460 C 430.456 391.038, 431.577 391.293, 432.125 392.143 C 432.831 393.237, 433.161 393.251, 433.830 392.216 C 434.287 391.510, 435.411 391.220, 436.330 391.573 C 437.302 391.946, 438 391.726, 438 391.048 C 438 390.407, 438.450 390.160, 439 390.500 C 439.550 390.840, 440 390.615, 440 390 C 440 389.385, 440.450 389.160, 441 389.500 C 441.550 389.840, 442 389.641, 442 389.059 C 442 388.477, 442.337 388.093, 442.750 388.207 C 443.163 388.321, 445.075 386.890, 447 385.027 C 448.925 383.164, 449.825 381.979, 449 382.394 C 447.667 383.065, 447.667 383.001, 449 381.824 C 449.825 381.096, 450.624 379.395, 450.775 378.044 C 450.926 376.693, 451.376 375.343, 451.775 375.044 C 452.801 374.274, 452.680 365.997, 451.643 365.999 C 451.172 365.999, 451.045 365.325, 451.362 364.500 C 451.678 363.675, 451.475 363, 450.910 363 C 450.344 363, 450.160 362.550, 450.500 362 C 450.840 361.450, 450.641 361, 450.059 361 C 449.477 361, 449.105 360.663, 449.234 360.250 C 449.582 359.132, 444.368 354.251, 442.032 353.510 C 440.914 353.155, 440 352.419, 440 351.874 C 440 351.328, 439.550 351.160, 439 351.500 C 438.450 351.840, 438 351.684, 438 351.153 C 438 350.622, 437.100 350.423, 436 350.710 C 434.882 351.003, 434 350.741, 434 350.117 C 434 349.502, 432.875 349, 431.500 349 C 430.125 349, 429 349.498, 429 350.107 M 539 350.357 C 539 350.828, 538.325 350.955, 537.500 350.638 C 536.675 350.322, 536 350.525, 536 351.090 C 536 351.656, 535.550 351.840, 535 351.500 C 534.450 351.160, 534 351.385, 534 352 C 534 352.615, 533.550 352.840, 533 352.500 C 532.450 352.160, 532 352.434, 532 353.108 C 532 353.782, 531.719 354.052, 531.376 353.709 C 531.033 353.366, 530.020 353.875, 529.126 354.840 C 528.232 355.805, 527.725 356.102, 528 355.500 C 528.275 354.898, 527.528 355.508, 526.340 356.856 C 525.152 358.204, 524.412 359.909, 524.694 360.645 C 524.976 361.381, 524.514 362.249, 523.667 362.574 C 522.820 362.899, 522.371 363.803, 522.670 364.583 C 522.969 365.362, 522.730 366, 522.138 366 C 521.547 366, 521.322 366.675, 521.638 367.500 C 521.955 368.325, 521.716 369, 521.107 369 C 520.498 369, 520 369.675, 520 370.500 C 520 371.325, 520.498 372, 521.107 372 C 521.716 372, 521.955 372.675, 521.638 373.500 C 521.322 374.325, 521.547 375, 522.138 375 C 522.730 375, 522.955 375.675, 522.638 376.500 C 522.322 377.325, 522.525 378, 523.090 378 C 523.656 378, 523.840 378.450, 523.500 379 C 523.160 379.550, 523.385 380, 524 380 C 524.615 380, 524.840 380.450, 524.500 381 C 524.160 381.550, 524.385 382, 525 382 C 525.615 382, 525.890 382.370, 525.610 382.822 C 525.029 383.762, 528.568 387.098, 529.334 386.332 C 529.611 386.055, 530.331 386.750, 530.934 387.877 C 531.587 389.096, 532.632 389.695, 533.515 389.356 C 534.332 389.042, 535 389.311, 535 389.952 C 535 390.593, 535.450 390.840, 536 390.500 C 536.550 390.160, 537 390.316, 537 390.847 C 537 391.378, 537.900 391.577, 539 391.290 C 540.118 390.997, 541 391.259, 541 391.883 C 541 392.498, 541.900 393, 543 393 C 544.100 393, 545 392.502, 545 391.893 C 545 391.284, 545.675 391.045, 546.500 391.362 C 547.325 391.678, 548 391.475, 548 390.910 C 548 390.344, 548.450 390.160, 549 390.500 C 549.550 390.840, 550 390.615, 550 390 C 550 389.385, 550.450 389.160, 551 389.500 C 551.550 389.840, 552 389.566, 552 388.892 C 552 388.218, 552.293 387.960, 552.651 388.318 C 553.009 388.676, 553.943 388.188, 554.725 387.234 C 555.594 386.176, 555.858 386.084, 555.402 387 C 554.896 388.017, 555.348 387.894, 556.805 386.616 C 557.986 385.580, 558.741 384.390, 558.482 383.971 C 558.223 383.552, 558.712 382.941, 559.569 382.612 C 560.426 382.283, 560.847 381.561, 560.504 381.007 C 560.162 380.453, 560.344 380, 560.910 380 C 561.475 380, 561.678 379.325, 561.362 378.500 C 561.045 377.675, 561.242 377, 561.799 377 C 562.357 377, 562.577 376.100, 562.290 375 C 561.997 373.882, 562.259 373, 562.883 373 C 563.498 373, 564 371.875, 564 370.500 C 564 369.125, 563.498 368, 562.883 368 C 562.259 368, 561.997 367.118, 562.290 366 C 562.577 364.900, 562.378 364, 561.847 364 C 561.316 364, 561.160 363.550, 561.500 363 C 561.840 362.450, 561.566 362, 560.892 362 C 560.218 362, 559.960 361.707, 560.318 361.349 C 560.676 360.991, 560.188 360.057, 559.234 359.275 C 558.281 358.492, 558.063 358.137, 558.750 358.485 C 560.797 359.522, 560.191 358.552, 556.845 355.437 C 555.110 353.822, 554.019 353.175, 554.419 354 C 554.873 354.933, 554.611 354.845, 553.725 353.766 C 552.943 352.812, 552.009 352.324, 551.651 352.682 C 551.293 353.040, 551 352.782, 551 352.108 C 551 351.434, 550.550 351.160, 550 351.500 C 549.450 351.840, 549 351.656, 549 351.090 C 549 350.525, 548.325 350.322, 547.500 350.638 C 546.675 350.955, 546 350.828, 546 350.357 C 546 349.886, 544.425 349.500, 542.500 349.500 C 540.575 349.500, 539 349.886, 539 350.357 M 482 407.357 C 482 407.828, 481.325 407.955, 480.500 407.638 C 479.675 407.322, 479 407.390, 479 407.791 C 479 408.191, 478.053 409.110, 476.895 409.833 C 475.152 410.922, 474.922 410.920, 475.557 409.824 C 475.978 409.096, 475.125 409.591, 473.661 410.924 C 470.786 413.544, 470.264 414.491, 472.250 413.485 C 472.938 413.137, 472.719 413.492, 471.766 414.275 C 470.812 415.057, 470.324 415.991, 470.682 416.349 C 471.040 416.707, 470.782 417, 470.108 417 C 469.434 417, 469.160 417.450, 469.500 418 C 469.840 418.550, 469.656 419, 469.090 419 C 468.525 419, 468.322 419.675, 468.638 420.500 C 468.955 421.325, 468.828 422, 468.357 422 C 467.886 422, 467.500 424.250, 467.500 427 C 467.500 429.750, 467.886 432, 468.357 432 C 468.828 432, 468.955 432.675, 468.638 433.500 C 468.322 434.325, 468.574 435, 469.198 435 C 469.822 435, 470.052 435.281, 469.709 435.624 C 469.366 435.967, 469.875 436.980, 470.840 437.874 C 471.954 438.907, 472.030 439.151, 471.047 438.544 C 470.196 438.017, 471.051 439.255, 472.946 441.294 C 476.541 445.159, 477.556 445.864, 476.485 443.750 C 476.137 443.063, 476.492 443.281, 477.275 444.234 C 478.057 445.188, 478.991 445.676, 479.349 445.318 C 479.707 444.960, 480 445.178, 480 445.802 C 480 446.426, 480.675 446.678, 481.500 446.362 C 482.325 446.045, 483 446.242, 483 446.799 C 483 447.357, 483.900 447.577, 485 447.290 C 486.118 446.997, 487 447.259, 487 447.883 C 487 448.498, 487.675 449, 488.500 449 C 489.325 449, 490 448.520, 490 447.933 C 490 447.320, 490.853 447.136, 492 447.500 C 493.192 447.878, 494 447.680, 494 447.008 C 494 446.389, 494.450 446.160, 495 446.500 C 495.550 446.840, 496 446.615, 496 446 C 496 445.385, 496.450 445.160, 497 445.500 C 497.550 445.840, 498 445.641, 498 445.059 C 498 444.477, 498.337 444.105, 498.750 444.234 C 499.728 444.539, 505.539 438.728, 505.234 437.750 C 505.105 437.337, 505.477 437, 506.059 437 C 506.641 437, 506.840 436.550, 506.500 436 C 506.160 435.450, 506.385 435, 507 435 C 507.615 435, 507.840 434.550, 507.500 434 C 507.160 433.450, 507.344 433, 507.910 433 C 508.475 433, 508.678 432.325, 508.362 431.500 C 508.045 430.675, 508.284 430, 508.893 430 C 509.502 430, 510 428.650, 510 427 C 510 425.350, 509.502 424, 508.893 424 C 508.284 424, 508.045 423.325, 508.362 422.500 C 508.678 421.675, 508.475 421, 507.910 421 C 507.344 421, 507.160 420.550, 507.500 420 C 507.840 419.450, 507.615 419, 507 419 C 506.385 419, 506.160 418.550, 506.500 418 C 506.840 417.450, 506.641 417, 506.059 417 C 505.477 417, 505.113 416.610, 505.250 416.132 C 505.387 415.655, 504.579 414.417, 503.453 413.382 C 502.327 412.347, 502.102 411.928, 502.953 412.452 C 504.252 413.251, 504.291 413.171, 503.200 411.952 C 502.485 411.153, 501.585 410.478, 501.200 410.451 C 499.258 410.314, 496 408.756, 496 407.964 C 496 407.468, 495.325 407.322, 494.500 407.638 C 493.675 407.955, 492.999 407.828, 492.997 407.357 C 492.995 406.886, 490.520 406.500, 487.497 406.500 C 484.473 406.500, 482 406.886, 482 407.357" stroke="none" fill="#9c74cc" fill-rule="evenodd"/></svg>