<svg xmlns="http://www.w3.org/2000/svg" width="660" height="640" viewBox="0 0 660 640" version="1.1"><path d="M 198.310 198.500 C 198.315 201.800, 198.502 203.029, 198.725 201.232 C 198.947 199.435, 198.943 196.735, 198.715 195.232 C 198.486 193.729, 198.304 195.200, 198.310 198.500 M 186.762 224.707 C 188.006 224.946, 189.806 224.937, 190.762 224.687 C 191.718 224.437, 190.700 224.241, 188.500 224.252 C 186.300 224.263, 185.518 224.468, 186.762 224.707 M 86.875 259.770 C 81.411 265.594, 81.194 267.029, 86.570 261.785 C 89.228 259.192, 91.172 256.838, 90.889 256.555 C 90.605 256.272, 88.799 257.719, 86.875 259.770 M 572.500 263 C 575.766 266.300, 578.662 269, 578.937 269 C 579.212 269, 576.766 266.300, 573.500 263 C 570.234 259.700, 567.338 257, 567.063 257 C 566.788 257, 569.234 259.700, 572.500 263 M 73.506 272.994 C 72.507 274.097, 72.155 275, 72.723 275 C 73.981 275, 76.475 272.142, 75.803 271.470 C 75.538 271.205, 74.504 271.890, 73.506 272.994 M 501.506 331.994 C 500.507 333.097, 500.155 334, 500.723 334 C 501.981 334, 504.475 331.142, 503.803 330.470 C 503.538 330.205, 502.504 330.890, 501.506 331.994 M 452.951 370.724 C 452.677 373.047, 452.833 374.567, 453.299 374.101 C 453.765 373.635, 453.989 371.735, 453.798 369.877 C 453.459 366.583, 453.438 366.604, 452.951 370.724 M 149 391.344 C 149 391.499, 150.423 392.948, 152.163 394.563 C 155.320 397.495, 155.322 397.496, 153.413 394.792 C 151.819 392.537, 149 390.334, 149 391.344 M 195.252 427.500 C 195.263 429.700, 195.468 430.482, 195.707 429.238 C 195.946 427.994, 195.937 426.194, 195.687 425.238 C 195.437 424.282, 195.241 425.300, 195.252 427.500 M 211.980 514.524 C 210.048 516.853, 211.426 517.291, 213.494 515.006 C 214.493 513.903, 214.845 513, 214.277 513 C 213.710 513, 212.676 513.686, 211.980 514.524 M 456.506 530.006 C 457.504 531.110, 458.538 531.795, 458.803 531.530 C 459.475 530.858, 456.981 528, 455.723 528 C 455.155 528, 455.507 528.903, 456.506 530.006 M 5.695 598.487 C 6.610 600.406, 7.536 601.797, 7.753 601.580 C 8.210 601.123, 5.175 595, 4.490 595 C 4.239 595, 4.781 596.569, 5.695 598.487 M 133.677 613.815 C 129.901 617.757, 130.332 618.890, 134.178 615.130 C 135.926 613.421, 137.131 611.797, 136.855 611.522 C 136.580 611.246, 135.150 612.278, 133.677 613.815" stroke="none" fill="#ececec" fill-rule="evenodd"/><path d="M 309.822 1.468 C 307.799 2.225, 301.049 5.083, 294.822 7.818 C 283.391 12.838, 253.597 25.510, 205 46.021 C 68.875 103.474, 49.666 111.846, 46.804 114.969 C 41.042 121.256, 42.642 129.974, 50.380 134.453 C 53.964 136.527, 71.171 144.211, 140.500 174.693 C 148.750 178.320, 161.320 183.923, 168.434 187.144 C 175.548 190.365, 182.365 193, 183.584 193 C 185.767 193, 185.804 192.759, 186.182 176.250 C 186.628 156.755, 187.660 153.649, 195.745 147.458 C 214.865 132.818, 266.358 117.795, 306.803 115.057 C 326.063 113.753, 330.893 113.744, 347 114.975 C 398.921 118.946, 457.351 139.130, 466.776 156.350 C 468.130 158.824, 468.607 162.933, 469 175.500 L 469.500 191.500 472.512 191.796 C 474.414 191.982, 478.716 190.616, 484.194 188.085 C 492.829 184.096, 555.794 156.789, 560.368 155.050 L 562.772 154.136 562.729 175.676 L 562.686 197.216 558.343 201.498 C 555.735 204.069, 553.980 206.722, 553.950 208.140 C 553.923 209.438, 553.737 215.601, 553.537 221.837 C 553.220 231.729, 553.403 233.403, 554.976 234.976 C 558.901 238.901, 579.048 240.098, 589.315 237.015 C 596.283 234.923, 597 233.436, 597 221.065 C 597 208.600, 596.256 205.916, 591.424 200.941 L 587.968 197.383 588.234 169.557 L 588.500 141.732 597.500 137.871 C 608.194 133.284, 612 129.574, 612 123.738 C 612 114.423, 610.445 113.417, 569.500 96.215 C 498.356 66.326, 422.020 34.330, 403 26.428 C 374.554 14.610, 370.003 12.701, 354 5.882 L 341.500 0.556 327.500 0.323 C 317.553 0.157, 312.435 0.488, 309.822 1.468 M 305.817 127.516 C 305.533 127.800, 300.171 128.505, 293.901 129.082 C 276.763 130.660, 252.371 136.102, 235.077 142.206 C 230.372 143.866, 220.788 148.098, 213.781 151.610 C 198.928 159.053, 199.540 158.059, 199.516 174.749 C 199.507 180.936, 199.187 185.999, 198.804 185.999 C 198.422 186, 198.305 190.364, 198.544 195.698 C 198.821 201.883, 198.597 205.631, 197.924 206.047 C 197.343 206.406, 196.604 210.202, 196.280 214.484 C 195.793 220.919, 195.371 222.352, 193.846 222.751 C 192.830 223.016, 192 223.631, 192 224.117 C 192 224.602, 190.425 225, 188.500 225 C 186.575 225, 185 224.550, 185 224 C 185 223.450, 184.100 223, 183 223 C 181.900 223, 181 223.477, 181 224.059 C 181 224.641, 180.541 224.834, 179.980 224.487 C 178.598 223.633, 157 227.017, 157 228.088 C 157 228.555, 156.324 228.678, 155.499 228.361 C 153.621 227.641, 140 230.906, 140 232.076 C 140 232.550, 139.431 232.719, 138.736 232.452 C 136.132 231.453, 108 243.137, 108 245.218 C 108 245.713, 107.547 245.838, 106.993 245.496 C 106.439 245.153, 105.716 245.577, 105.386 246.437 C 105.056 247.296, 104.159 248, 103.393 248 C 102.627 248, 102 248.450, 102 249 C 102 249.550, 101.325 250, 100.500 250 C 99.675 250, 99 250.450, 99 251 C 99 251.550, 98.311 252, 97.469 252 C 96.626 252, 95.679 252.672, 95.364 253.494 C 95.048 254.316, 94.452 254.779, 94.039 254.524 C 93.625 254.268, 91.844 255.855, 90.080 258.050 C 88.302 260.262, 86.388 261.739, 85.782 261.365 C 85.180 260.993, 84.974 261.148, 85.322 261.712 C 85.669 262.273, 84.986 263.580, 83.805 264.616 C 82.403 265.845, 81.942 265.979, 82.478 265 C 82.930 264.175, 81.658 265.051, 79.650 266.946 C 77.643 268.842, 76 270.969, 76 271.673 C 76 272.378, 74.879 273.688, 73.509 274.586 C 72.138 275.484, 71.236 276.572, 71.503 277.005 C 71.770 277.437, 71.316 278.048, 70.494 278.364 C 69.672 278.679, 69 279.626, 69 280.469 C 69 281.311, 68.550 282, 68 282 C 67.450 282, 67 282.675, 67 283.500 C 67 284.325, 66.540 285, 65.979 285 C 65.417 285, 64.404 286.231, 63.729 287.736 C 63.053 289.241, 61.713 291.266, 60.750 292.236 C 59.788 293.206, 59 294.637, 59 295.417 C 59 296.196, 58.606 296.983, 58.125 297.167 C 57.077 297.566, 48 315.241, 48 316.882 C 48 317.512, 47.599 318.809, 47.109 319.764 C 43.399 326.998, 39.611 336.883, 34.946 351.500 C 33.191 357, 31.129 363.446, 30.364 365.824 C 29.599 368.202, 29.231 370.565, 29.546 371.074 C 29.861 371.583, 29.613 372, 28.996 372 C 28.379 372, 27.995 372.788, 28.142 373.750 C 28.289 374.712, 27.911 376.401, 27.302 377.503 C 26.693 378.604, 26.038 381.079, 25.847 383.003 C 25.656 384.926, 25.206 386.725, 24.847 387 C 24.488 387.275, 24.038 389.075, 23.847 391 C 23.656 392.925, 23.169 394.747, 22.765 395.050 C 22.361 395.352, 21.911 397.264, 21.765 399.298 C 21.619 401.332, 21.110 402.997, 20.633 402.998 C 20.157 402.999, 19.984 404.136, 20.249 405.524 C 20.515 406.912, 20.311 408.308, 19.798 408.625 C 19.284 408.943, 19.094 409.803, 19.376 410.537 C 19.657 411.270, 19.434 412.022, 18.879 412.207 C 18.324 412.392, 17.721 414.334, 17.539 416.522 C 17.357 418.710, 16.869 421.337, 16.455 422.360 C 16.041 423.382, 15.656 425.519, 15.601 427.107 C 15.545 428.696, 15.114 429.996, 14.642 429.998 C 14.169 429.999, 14.059 431.097, 14.395 432.439 C 14.732 433.780, 14.525 435.176, 13.935 435.540 C 13.346 435.904, 13.100 436.817, 13.388 437.569 C 13.677 438.321, 13.456 439.218, 12.897 439.563 C 12.339 439.909, 11.975 441.161, 12.090 442.346 C 12.204 443.530, 11.966 445.266, 11.560 446.202 C 11.155 447.138, 11.114 448.376, 11.470 448.952 C 11.827 449.528, 11.590 450, 10.946 450 C 10.212 450, 9.938 451.122, 10.213 453 C 10.455 454.650, 10.249 456, 9.755 456 C 9.261 456, 8.956 457.012, 9.077 458.250 C 9.198 459.488, 8.961 461.278, 8.550 462.228 C 8.139 463.178, 7.735 465.763, 7.651 467.972 C 7.568 470.181, 7.106 471.991, 6.625 471.994 C 6.144 471.997, 6.017 473.333, 6.342 474.961 C 6.677 476.633, 6.470 478.210, 5.867 478.583 C 5.279 478.946, 5.051 480.506, 5.360 482.051 C 5.669 483.596, 5.500 485.004, 4.985 485.180 C 4.470 485.356, 3.876 487.975, 3.664 491 C 3.453 494.025, 2.944 497.288, 2.533 498.250 C 2.122 499.213, 2.045 500.675, 2.362 501.500 C 2.678 502.325, 2.450 503, 1.855 503 C 1.222 503, 0.956 504.244, 1.213 506 C 1.455 507.650, 1.282 509, 0.827 509 C 0.372 509, -0 526.133, -0 547.072 L -0 585.144 5.599 596.572 C 8.679 602.858, 11.604 608, 12.099 608 C 12.595 608, 13 608.689, 13 609.531 C 13 610.374, 13.675 611.322, 14.500 611.638 C 15.325 611.955, 16 612.786, 16 613.485 C 16 614.184, 17.013 615.507, 18.250 616.424 C 19.488 617.342, 19.825 617.810, 19 617.466 C 18.175 617.121, 20.234 619.462, 23.575 622.669 C 30.314 629.138, 37.855 633.962, 47.004 637.658 C 52.899 640.039, 53.673 640.098, 75.283 639.803 L 97.500 639.500 104.725 636.114 C 108.698 634.251, 111.756 632.414, 111.519 632.030 C 111.282 631.647, 111.666 631.333, 112.372 631.333 C 114.296 631.333, 122.618 625.347, 127.866 620.189 C 130.414 617.684, 132.871 615.727, 133.324 615.841 C 133.778 615.956, 133.901 615.649, 133.598 615.158 C 133.038 614.253, 136.313 610.687, 137.081 611.366 C 137.312 611.570, 138.625 610.350, 140 608.656 C 141.375 606.962, 141.825 605.934, 141 606.372 C 140.175 606.810, 141.075 605.813, 143 604.156 C 144.925 602.499, 146.510 600.774, 146.523 600.322 C 146.536 599.870, 147.773 598.197, 149.273 596.604 C 150.773 595.011, 152 593.072, 152 592.295 C 152 591.518, 152.352 591.100, 152.782 591.366 C 153.504 591.811, 157.534 586.745, 158.208 584.545 C 158.368 584.020, 159.537 582.554, 160.804 581.287 C 162.071 580.020, 162.846 578.560, 162.526 578.042 C 162.206 577.524, 162.869 576.605, 164 576 C 165.131 575.395, 165.792 574.472, 165.469 573.950 C 165.146 573.427, 165.345 573, 165.910 573 C 166.877 573, 173.514 563.452, 173.776 561.684 C 173.843 561.236, 175.045 559.966, 176.448 558.862 C 177.852 557.758, 179 556.233, 179 555.473 C 179 554.713, 180.125 552.966, 181.500 551.591 C 182.875 550.216, 184 548.369, 184 547.486 C 184 546.604, 184.437 546.152, 184.971 546.482 C 185.505 546.812, 186.220 545.971, 186.561 544.613 C 186.902 543.256, 187.815 541.901, 188.590 541.604 C 189.366 541.306, 190 540.389, 190 539.567 C 190 538.744, 190.900 537.589, 192 537 C 193.100 536.411, 194 535.433, 194 534.825 C 194 534.218, 194.787 533.145, 195.750 532.441 C 196.713 531.737, 197.523 530.787, 197.551 530.331 C 197.604 529.474, 213.718 513, 214.502 513 C 215.489 513, 224 506.555, 224 505.807 C 224 505.363, 224.338 505.090, 224.750 505.200 C 225.162 505.310, 227.750 504.246, 230.500 502.835 C 233.250 501.424, 237.863 499.674, 240.750 498.946 C 243.637 498.218, 246 497.369, 246 497.061 C 246 496.453, 407.762 496.758, 408.844 497.368 C 409.205 497.571, 411.300 498.289, 413.500 498.962 C 419.692 500.859, 433.406 507.309, 434.311 508.750 C 434.758 509.461, 435.523 509.795, 436.011 509.493 C 436.500 509.191, 437.388 509.857, 437.985 510.972 C 438.582 512.087, 439.430 513, 439.870 513 C 441 513, 459 530.906, 459 532.029 C 459 532.538, 460.125 533.691, 461.500 534.592 C 462.875 535.493, 464 536.867, 464 537.646 C 464 538.425, 464.672 539.321, 465.494 539.636 C 466.316 539.952, 466.759 540.582, 466.478 541.036 C 466.196 541.491, 466.871 542.497, 467.977 543.271 C 469.083 544.046, 469.727 544.940, 469.408 545.259 C 469.089 545.577, 469.780 546.347, 470.942 546.969 C 472.105 547.591, 472.790 548.531, 472.465 549.057 C 472.139 549.584, 472.577 550.284, 473.437 550.614 C 474.296 550.944, 475 551.775, 475 552.461 C 475 553.147, 476.125 554.922, 477.500 556.405 C 478.875 557.889, 480 559.530, 480 560.052 C 480 560.573, 480.401 561, 480.892 561 C 481.382 561, 482.058 562.094, 482.393 563.431 C 482.729 564.767, 484.511 567.459, 486.353 569.413 C 488.195 571.366, 489.480 573.187, 489.208 573.459 C 488.936 573.730, 489.451 574.236, 490.351 574.581 C 491.252 574.927, 491.749 575.598, 491.455 576.072 C 491.162 576.546, 491.840 577.508, 492.961 578.208 C 494.083 578.908, 495 579.982, 495 580.595 C 495 581.207, 496.227 583.011, 497.727 584.604 C 499.227 586.197, 500.464 587.874, 500.477 588.331 C 500.490 588.787, 501.281 589.732, 502.234 590.429 C 503.188 591.127, 503.725 591.942, 503.427 592.240 C 503.129 592.538, 504.266 593.765, 505.954 594.967 C 507.642 596.169, 508.754 597.589, 508.425 598.122 C 507.761 599.196, 533.098 625, 534.816 625 C 535.411 625, 537.023 626.044, 538.399 627.319 C 539.776 628.595, 545.311 631.857, 550.701 634.569 L 560.500 639.500 582.072 639.803 C 602.041 640.083, 604.065 639.948, 609.322 637.981 C 612.445 636.812, 615 635.412, 615 634.869 C 615 634.326, 615.434 634.150, 615.964 634.477 C 616.493 634.805, 617.768 634.269, 618.797 633.286 C 619.825 632.304, 621.287 631.356, 622.046 631.179 C 624.364 630.640, 632.470 624.298, 636.680 619.731 C 646.836 608.713, 657.961 585.653, 656.447 578.758 C 656.078 577.076, 656.262 576, 656.921 576 C 657.665 576, 658 568.085, 658 550.500 C 658 536.475, 657.626 525, 657.169 525 C 656.712 525, 656.312 522.638, 656.279 519.750 C 656.207 513.464, 656.171 513.022, 654.762 501.250 C 654.153 496.163, 653.256 492, 652.768 492 C 652.281 492, 652.171 491.532, 652.524 490.961 C 653.382 489.573, 648.985 462, 647.907 462 C 647.443 462, 647.305 461.368, 647.602 460.595 C 648.309 458.753, 643.966 437, 642.891 437 C 642.436 437, 642.302 436.377, 642.594 435.616 C 643.290 433.801, 636.109 401.600, 634.910 401.165 C 634.403 400.980, 634.225 400.444, 634.516 399.974 C 635.292 398.719, 629.918 378, 628.818 378 C 628.303 378, 628.158 377.554, 628.495 377.008 C 629.309 375.691, 625.997 364, 624.809 364 C 624.299 364, 624.170 363.534, 624.522 362.964 C 625.366 361.598, 619.051 341.671, 612.835 326.088 C 607.251 312.089, 605.217 307.828, 603.610 306.765 C 603 306.361, 602.868 306.024, 603.318 306.015 C 603.768 306.007, 602.010 301.967, 599.411 297.038 C 596.812 292.109, 594.295 288.317, 593.818 288.612 C 593.341 288.907, 593.015 288.778, 593.094 288.324 C 593.470 286.157, 592.718 284.784, 589.258 281.325 C 587.200 279.267, 586.188 277.933, 587.008 278.360 C 587.829 278.787, 586.925 277.697, 585 275.937 C 583.075 274.176, 582.175 273.112, 583 273.572 C 585.023 274.700, 577.229 265.506, 571.833 260.400 C 566.145 255.019, 560.490 250.885, 559.662 251.505 C 559.298 251.777, 559.219 251.706, 559.487 251.347 C 560.122 250.494, 553.930 245.925, 552.956 246.527 C 552.545 246.781, 551.991 246.418, 551.723 245.722 C 551.310 244.645, 537.865 237.434, 531.500 234.874 C 520.381 230.404, 502.551 225.690, 499.920 226.526 C 498.794 226.883, 498 226.664, 498 225.996 C 498 225.369, 496.988 224.988, 495.750 225.148 C 494.512 225.307, 492.908 225.070, 492.185 224.620 C 491.462 224.170, 489.324 224.092, 487.435 224.446 C 485.176 224.870, 484 224.706, 484 223.966 C 484 223.205, 481.581 222.948, 476.498 223.171 C 472.371 223.352, 468.996 223.162, 468.998 222.750 C 468.999 222.338, 466.802 222, 464.115 222 L 459.230 222 458.724 216.750 C 458.446 213.863, 458.129 207.227, 458.021 202.005 C 457.912 196.782, 457.526 192.282, 457.162 192.005 C 456.399 191.423, 456.162 187.350, 456.108 173.908 C 456.087 168.632, 455.650 163.232, 455.136 161.908 C 454.465 160.177, 450.587 157.636, 441.351 152.873 C 415.689 139.639, 389.688 132.371, 354.293 128.538 C 340.971 127.096, 306.955 126.378, 305.817 127.516 M 572.500 263 C 575.766 266.300, 578.662 269, 578.937 269 C 579.212 269, 576.766 266.300, 573.500 263 C 570.234 259.700, 567.338 257, 567.063 257 C 566.788 257, 569.234 259.700, 572.500 263 M 488 295.075 C 488 295.667, 486.762 296.043, 485.250 295.912 C 479.849 295.443, 472.507 300.235, 469.362 306.283 C 467.846 309.197, 465.904 322, 466.978 322 C 467.319 322, 468.146 323.462, 468.815 325.250 C 471.532 332.507, 479.793 338.046, 487.770 337.960 C 492.406 337.910, 502.137 333.813, 503.491 331.341 C 504.046 330.329, 504.725 329.275, 505 329 C 505.275 328.725, 505.683 327.825, 505.906 327 C 507.131 322.472, 508.580 319, 509.245 319 C 509.660 319, 510 318.100, 510 317 C 510 315.900, 509.550 315, 509 315 C 508.450 315, 507.997 313.988, 507.993 312.750 C 507.990 311.512, 507.115 309.178, 506.050 307.562 C 504.985 305.947, 504.299 304.325, 504.526 303.958 C 504.753 303.591, 503.715 302.213, 502.219 300.895 L 499.500 298.500 501.500 301.051 C 502.670 302.544, 502.166 302.255, 500.284 300.353 C 498.440 298.490, 495.560 296.820, 493.534 296.440 C 491.590 296.076, 490 295.377, 490 294.889 C 490 294.400, 489.550 294, 489 294 C 488.450 294, 488 294.484, 488 295.075 M 160.500 304.850 C 159.400 305.207, 158.346 306.400, 158.158 307.500 C 157.971 308.600, 157.521 309.612, 157.158 309.749 C 156.796 309.886, 156.642 318.436, 156.816 328.749 L 157.132 347.500 153.681 351.250 L 150.230 355 130.187 355 C 112.944 355, 109.914 355.229, 108.503 356.640 C 107.096 358.047, 106.909 360.451, 107.182 373.559 C 107.357 381.963, 107.861 389.199, 108.302 389.638 C 108.743 390.078, 117.968 390.608, 128.802 390.816 L 148.500 391.195 151.979 394.347 C 154.645 396.764, 155.004 396.916, 153.516 395 L 151.574 392.500 154.037 394.776 C 156.454 397.009, 156.509 397.413, 157 416.499 C 157.642 441.456, 156.854 440.353, 174.386 440.849 C 184.115 441.124, 187.353 440.869, 189.732 439.639 C 191.390 438.781, 193.028 438.362, 193.373 438.707 C 193.718 439.051, 194 437.458, 194 435.167 C 194 432.875, 194.395 431, 194.877 431 C 195.365 431, 195.525 424.156, 195.237 415.595 C 194.745 400.947, 194.828 400.014, 196.941 396.595 C 198.969 393.313, 201.064 391.325, 199.412 394.250 C 199.024 394.938, 199.725 394.450, 200.970 393.166 C 203.190 390.878, 203.557 390.838, 219.618 391.166 C 228.629 391.350, 236.001 391.163, 236.001 390.750 C 236 390.337, 237.596 390, 239.547 390 C 242.439 390, 243.407 389.448, 244.797 387.006 C 245.733 385.360, 246.725 384.010, 247 384.007 C 247.275 384.004, 247.402 378.823, 247.282 372.494 C 247.075 361.588, 246.171 357.482, 243.600 355.765 C 242.995 355.361, 234.063 355.024, 223.750 355.015 C 213.219 355.007, 205 354.603, 205 354.094 C 205 353.595, 204.175 353.403, 203.168 353.666 C 201.943 353.987, 200.270 352.932, 198.125 350.489 L 194.914 346.832 195.207 328.915 C 195.368 319.060, 195.162 310.998, 194.750 310.999 C 194.338 310.999, 194 309.891, 194 308.535 C 194 307.122, 193.175 305.629, 192.066 305.035 C 189.978 303.918, 163.838 303.764, 160.500 304.850 M 540 348.904 C 540 349.333, 538.219 350.217, 536.042 350.869 C 533.865 351.521, 530.498 353.551, 528.560 355.379 C 526.622 357.207, 524.803 358.544, 524.518 358.351 C 524.233 358.158, 524.187 358.262, 524.415 358.581 C 524.643 358.901, 523.978 361.039, 522.937 363.331 C 520.420 368.874, 520.535 372.458, 523.426 378.668 C 524.749 381.510, 525.532 384.169, 525.166 384.578 C 524.800 384.986, 525.030 385.017, 525.678 384.646 C 526.365 384.252, 527.123 384.811, 527.495 385.985 C 527.847 387.093, 528.779 388, 529.567 388 C 530.355 388, 531 388.525, 531 389.167 C 531 389.808, 531.282 390.051, 531.627 389.706 C 531.972 389.361, 533.827 389.736, 535.749 390.540 C 537.671 391.343, 540.724 392, 542.532 392 C 546.204 392, 558.500 386.583, 558.500 384.965 C 558.500 384.394, 559.101 383.556, 559.835 383.102 C 560.570 382.648, 561.152 381.877, 561.129 381.388 C 561.048 379.665, 562.225 376, 562.858 376.002 C 563.677 376.004, 563.706 365.669, 562.890 365 C 562.132 364.379, 558.599 357.744, 558.542 356.833 C 558.488 355.984, 557.037 354.519, 556.167 354.437 C 555.235 354.348, 545.610 349.621, 545 348.952 C 544.206 348.082, 540 348.042, 540 348.904 M 430.217 350.183 C 422.770 351.016, 420 351.798, 420 353.067 C 420 353.580, 419.339 354, 418.530 354 C 416.463 354, 410.741 366.334, 410.609 371.076 C 410.549 373.235, 410.837 375.001, 411.250 375.001 C 411.663 375, 412 375.810, 412 376.800 C 412 377.790, 412.540 379.140, 413.200 379.800 C 413.860 380.460, 413.999 381, 413.509 381 C 413.019 381, 413.491 381.639, 414.559 382.419 C 415.626 383.200, 416.500 384.438, 416.500 385.169 C 416.500 385.901, 417.099 386.500, 417.831 386.500 C 418.562 386.500, 419.819 387.400, 420.624 388.500 C 421.428 389.600, 422.297 390.368, 422.555 390.206 C 422.813 390.045, 424.706 390.380, 426.762 390.951 C 432.291 392.486, 436.096 392.232, 440.155 390.057 C 442.149 388.988, 444.055 388.313, 444.390 388.557 C 444.726 388.801, 444.823 388.748, 444.606 388.439 C 444.389 388.131, 445.268 386.823, 446.559 385.532 C 451.440 380.651, 456.185 367, 453 367 C 452.450 367, 452 366.579, 452 366.065 C 452 365.551, 451.518 363.863, 450.930 362.315 C 450.341 360.767, 449.874 359.405, 449.891 359.288 C 450.016 358.459, 443.501 353.131, 440.355 351.490 C 437.132 349.809, 435.470 349.595, 430.217 350.183 M 484.973 406.496 C 475.329 408.132, 472.924 409.805, 470 416.914 C 468.625 420.257, 467.253 422.993, 466.951 422.996 C 466.649 422.998, 466.424 424.799, 466.451 426.997 C 466.478 429.195, 466.837 430.995, 467.250 430.997 C 467.663 430.999, 468 431.865, 468 432.923 C 468 433.981, 469.165 436.231, 470.589 437.923 C 472.013 439.615, 472.823 441, 472.389 441 C 471.457 441, 473.777 443.470, 474.800 443.566 C 475.959 443.675, 483.479 447.456, 483.776 448.079 C 484.287 449.150, 494.732 447.222, 497.208 445.599 C 498.556 444.716, 500.033 444.332, 500.490 444.746 C 500.947 445.161, 501.107 445.050, 500.846 444.500 C 500.232 443.207, 504.613 438.999, 505.685 439.852 C 506.133 440.208, 506.188 440.113, 505.807 439.640 C 505.426 439.167, 505.988 437.149, 507.057 435.155 C 509.563 430.479, 509.532 423.963, 506.980 418.960 C 505.868 416.782, 505.209 415, 505.514 415 C 506.865 415, 499.113 409.079, 495.473 407.331 C 491.901 405.615, 490.717 405.521, 484.973 406.496" stroke="none" fill="#fbfbfb" fill-rule="evenodd"/></svg>